<svg width="530" height="495" viewBox="0 0 530 495" fill="none" xmlns="http://www.w3.org/2000/svg">
    <g opacity=".25">
        <path opacity=".2" d="M79.764 116.205v205.161l177.29 102.543 177.289-102.543V116.205L257.054 13.662 79.764 116.205z" fill="#CDB9D7"/>
        <path opacity=".2" d="M141.296 287.936V152.159l117.337-67.908 117.337 67.908v135.777l-117.337 67.87-117.337-67.87z" fill="#E1B4AF"/>
        <path opacity=".2" d="M195.991 254.072v-70.709l61.124-35.354 61.124 35.354v70.709l-61.124 35.392-61.124-35.392z" fill="#E1B4AF"/>
        <path d="m257.809 426.105-.491-.265L79.764 322.994V116.773l.453-.265L257.81 13.662l.453.265 177.781 102.846v206.221l-.453.265-177.781 102.846zM81.653 321.896l176.345 102.202 176.345-102.202V118.06L257.809 15.858 81.653 118.06v203.836z" fill="#E1B4AF"/>
        <path d="m257.298 355.686-118.281-68.361V150.374l.453-.265 117.828-68.135 118.282 68.4v136.951l-.454.265-117.828 68.096zm-116.392-69.535 116.392 67.34 116.393-67.34V151.472l-116.393-67.34-116.392 67.34v134.679z" fill="#E1B4AF"/>
        <path d="m258.06 291.735-62.069-35.884v-71.92l.454-.303 61.615-35.619 62.068 35.922v71.92l-.491.265-61.577 35.619zm-60.18-36.982 60.18 34.824 60.179-34.824v-69.649l-60.179-34.786-60.18 34.786v69.649z" fill="#E1B4AF"/>
    </g>
</svg>
