<svg width="34" height="34" viewBox="0 0 34 34" fill="none" xmlns="http://www.w3.org/2000/svg">
    <path d="M0 8a8 8 0 0 1 8-8h18a8 8 0 0 1 8 8v18a8 8 0 0 1-8 8H8a8 8 0 0 1-8-8V8z" fill="#232C33"/>
    <path d="M27.875 14.375A5.625 5.625 0 0 0 24.5 13.25l-.14-1.267a6.048 6.048 0 0 0-1.735-3.608l-.75 1.125a8.384 8.384 0 0 0-4.032-3.2l-.468-.175.894 1.61a4.248 4.248 0 0 1 .231 3.64l-1.114-.101a5.8 5.8 0 0 1-4.511-2.899L13.25 11l-.801.133A9.36 9.36 0 0 0 6.5 14.75l1.574-.157a6.597 6.597 0 0 1 4.051.907L11 17.375a13.399 13.399 0 0 1 6.184-.771l.191.021a12.94 12.94 0 0 1-7.72 4.635l-1.28.24L11 23a15.33 15.33 0 0 1-4.875 4.875h3.071A8.09 8.09 0 0 0 14.375 26l.375 1.5 1.978-1.484a3.882 3.882 0 0 0 1.389-1.99l.276-.92a3.883 3.883 0 0 1 1.982-2.356 4.946 4.946 0 0 1-.609 3.515l-.141.235h.064a2.56 2.56 0 0 0 1.811-.75l-.05.299a7.069 7.069 0 0 0 .41 3.788l.015.038 1.256-1.413a6.904 6.904 0 0 0 1.744-4.587L26 22.25l-.007-.036a8.267 8.267 0 0 0-1.493-3.339 2.263 2.263 0 0 1 2.074.337l.551.413.168-.67A3.741 3.741 0 0 0 26 15.124l1.875-.75z" fill="#E88604"/>
    <path d="M18.495 19.462c-.061.071-.124.14-.187.21l-1.235.495a21.773 21.773 0 0 1-5.001 1.337l.106.742c1.661-.237 3.29-.66 4.857-1.259a21.426 21.426 0 0 1-4.342 3.185l.364.656a22.207 22.207 0 0 0 3.488-2.399l-.65 1.953.71.237 1.069-3.203c.483-.465.945-.953 1.388-1.463l3.82-4.408a16.644 16.644 0 0 0-.63 6.746l.746-.082a15.9 15.9 0 0 1 .61-6.47l.3-.98a5.18 5.18 0 0 0 1.452 2.881l.53-.53a4.425 4.425 0 0 1-1.244-2.488l-.125-.878.497-.518a10.253 10.253 0 0 0 2.857-7.1h-1.5c0 2.43-.804 4.794-2.286 6.721l-.3.39-.218-.087a4.032 4.032 0 0 1-2.11-1.943l-.671.336a4.78 4.78 0 0 0 2.503 2.303l.02.008-.323.422-.086.1h-.197a31.17 31.17 0 0 1-6.75-.742l-.163.732c2.123.472 4.288.725 6.463.756l-3.762 4.34z" fill="#EB6D3B"/>
</svg>
