<svg width="290" height="166" viewBox="0 0 290 166" fill="none" xmlns="http://www.w3.org/2000/svg">
    <g filter="url(#2sogcox75a)">
        <rect x="30" y="60.822" width="221" height="72" rx="16" transform="rotate(-9.066 30 60.822)" fill="#fff"/>
        <path d="M79.95 86.162a1.332 1.332 0 0 0-1.273-.702l-7.666.103-4.444-6.272a1.333 1.333 0 0 0-2.37.378L61.923 87l-7.315 2.302a1.334 1.334 0 0 0-.924 1.065 1.334 1.334 0 0 0 .54 1.264l6.278 4.4-.124 7.688a1.332 1.332 0 0 0 2.134 1.104l6.18-4.591 7.279 2.457c.201.075.419.096.63.062a1.34 1.34 0 0 0 1.054-1.775l-2.51-7.269 4.598-6.134a1.334 1.334 0 0 0 .207-1.41zm-7.257 6.558a1.332 1.332 0 0 0-.195 1.233l1.828 5.366-5.37-1.844a1.333 1.333 0 0 0-1.238.198l-4.53 3.423.067-5.668a1.333 1.333 0 0 0-.569-1.11l-4.58-3.32 5.415-1.688a1.333 1.333 0 0 0 .885-.884l1.543-5.39 3.278 4.634a1.333 1.333 0 0 0 1.116.565l5.672-.082-3.322 4.567z" fill="url(#dgy4kqyggb)"/>
        <path d="m109.984 82.49-3.04.485-6.268-7.75-.07.012c.339 1.49.559 2.558.662 3.2l.846 5.309-2.137.34-1.8-11.278 3.017-.482 6.247 7.666.054-.008c-.311-1.454-.515-2.484-.612-3.09l-.852-5.34 2.153-.343 1.8 11.28zm5.098-8.108c-.499.08-.864.302-1.096.666-.233.359-.323.832-.272 1.42l3.302-.527c-.103-.58-.326-1.003-.669-1.27-.344-.272-.766-.368-1.265-.289zm1.492 7.215c-1.389.221-2.535.011-3.439-.63-.905-.642-1.469-1.665-1.693-3.069-.23-1.445-.048-2.619.546-3.52.599-.908 1.536-1.464 2.812-1.667 1.219-.195 2.223 0 3.013.587.789.586 1.282 1.491 1.477 2.715l.182 1.142-5.562.888c.132.664.414 1.154.844 1.47.43.317.98.422 1.648.315a6.55 6.55 0 0 0 1.448-.397 7.443 7.443 0 0 0 1.368-.748l.29 1.82a5.467 5.467 0 0 1-1.246.666c-.452.178-1.015.32-1.688.428zm12.496-2.152-1.144-2.911-1.503-3.668-.054.008-.485 7.08-2.53.403-3.83-8.234 2.345-.374 1.605 3.66c.268.658.581 1.576.938 2.754l.046-.008c-.042-.394-.051-1.028-.027-1.902l.019-.675.405-4.306 2.592-.413 1.671 3.974.172.486a22.1 22.1 0 0 1 .47 1.405c.073.23.124.418.152.561l.047-.007c-.013-.378-.012-.898.004-1.56.015-.666.03-1.117.045-1.352l.425-3.984 2.307-.368-1.108 9.022-2.562.409zm16.89-5.907c.162 1.018-.077 1.88-.719 2.583-.637.703-1.609 1.158-2.915 1.367-1.203.192-2.304.135-3.302-.17l-.355-2.221c.816.218 1.497.354 2.043.41a5.843 5.843 0 0 0 1.484-.024c.525-.083.91-.248 1.156-.493.25-.245.344-.566.281-.962a.98.98 0 0 0-.279-.557 2.039 2.039 0 0 0-.627-.414c-.262-.122-.789-.299-1.58-.531-.741-.214-1.308-.443-1.7-.686a3.555 3.555 0 0 1-.992-.91c-.269-.363-.445-.81-.53-1.34-.159-.997.053-1.836.635-2.514.588-.68 1.479-1.114 2.672-1.304a6.652 6.652 0 0 1 1.707-.06c.557.054 1.147.16 1.768.32l-.475 1.983c-.641-.151-1.167-.244-1.579-.279a4.822 4.822 0 0 0-1.181.038c-.452.073-.783.233-.991.483-.208.25-.285.544-.231.883.034.211.112.388.236.532.122.14.301.266.535.382.239.11.788.29 1.646.544 1.134.336 1.938.727 2.41 1.174.471.442.766 1.03.883 1.766zm3.871-2.216.817-1.475 1.996-3.009 2.654-.423-2.828 4.288 4.413 4.304-2.716.433-3.042-3.098-.881.971.428 2.685-2.353.375-1.915-12.004 2.353-.376.854 5.355.189 1.979.031-.005zm6.454-7.35c-.123-.767.243-1.218 1.097-1.355.854-.136 1.342.18 1.464.945.058.366-.004.668-.187.909-.179.234-.482.385-.909.453-.854.136-1.342-.181-1.465-.953zm4.185 10.463-2.353.375-1.376-8.625 2.353-.376 1.376 8.626zm4.83-.771-2.353.375-1.916-12.004 2.353-.375 1.916 12.004zm4.829-.77-2.353.375-1.915-12.005 2.353-.375 1.915 12.004zm13.671-2.182-1.246-2.554-4.112.656-.39 2.815-2.576.411 2.173-11.96 2.924-.467 5.804 10.688-2.577.411zm-2.137-4.469c-1.144-2.312-1.791-3.62-1.939-3.923a13.084 13.084 0 0 1-.322-.724c-.064.685-.291 2.39-.679 5.116l2.94-.469zm8.711 3.578c-1.013.162-1.873-.104-2.579-.799-.702-.695-1.164-1.739-1.386-3.133-.226-1.414-.109-2.562.352-3.442.465-.887 1.215-1.412 2.248-1.577 1.086-.173 1.981.116 2.687.869l.077-.013a9.695 9.695 0 0 1-.452-1.692l-.441-2.762 2.361-.376 1.915 12.004-1.805.288-.634-1.046-.1.016c-.399.934-1.147 1.488-2.243 1.663zm.527-2.006c.602-.096 1.013-.341 1.235-.735.227-.395.287-1.014.179-1.856l-.041-.255c-.147-.926-.397-1.566-.749-1.921-.347-.357-.842-.483-1.485-.38-.525.083-.898.372-1.12.866-.217.489-.258 1.157-.123 2.006.136.848.384 1.463.745 1.843.361.375.814.519 1.359.432zm9.472.41c-1.013.163-1.873-.104-2.58-.798-.702-.695-1.164-1.74-1.386-3.133-.226-1.414-.108-2.562.353-3.442.465-.887 1.214-1.413 2.248-1.577 1.085-.174 1.981.116 2.686.868l.077-.012a9.783 9.783 0 0 1-.452-1.692l-.44-2.762 2.36-.377 1.916 12.005-1.806.288-.633-1.046-.1.016c-.4.934-1.147 1.488-2.243 1.663zm.526-2.006c.602-.096 1.014-.34 1.236-.735.227-.394.287-1.013.178-1.856l-.04-.254c-.148-.926-.398-1.567-.75-1.922-.347-.356-.842-.483-1.484-.38-.525.084-.898.373-1.12.867-.218.488-.259 1.157-.123 2.005.135.849.384 1.463.745 1.843.36.375.813.52 1.358.432zm9.154-6.99c-.499.08-.864.301-1.096.665-.233.36-.324.833-.272 1.42l3.302-.527c-.103-.58-.326-1.002-.67-1.27-.344-.272-.765-.368-1.264-.288zm1.491 7.214c-1.388.222-2.535.012-3.439-.63-.904-.641-1.468-1.664-1.692-3.068-.231-1.445-.049-2.619.546-3.52.599-.909 1.536-1.464 2.811-1.668 1.219-.194 2.224.002 3.013.587.79.587 1.283 1.492 1.478 2.716l.182 1.142-5.562.887c.132.664.413 1.155.844 1.471.43.317.979.422 1.648.315a6.547 6.547 0 0 0 1.447-.397 7.444 7.444 0 0 0 1.368-.749l.291 1.821a5.477 5.477 0 0 1-1.247.666c-.451.177-1.014.32-1.688.427zm8.163-1.302c-1.014.162-1.874-.105-2.58-.799-.702-.695-1.164-1.74-1.386-3.133-.226-1.414-.109-2.562.352-3.442.465-.887 1.215-1.412 2.249-1.577 1.085-.174 1.98.116 2.686.869l.077-.013a9.694 9.694 0 0 1-.452-1.692l-.441-2.762 2.361-.377 1.915 12.005-1.805.288-.634-1.046-.1.016c-.399.934-1.147 1.488-2.242 1.663zm.526-2.006c.602-.096 1.014-.341 1.235-.735.228-.395.287-1.014.179-1.856l-.041-.255c-.147-.926-.397-1.566-.749-1.922-.347-.356-.842-.482-1.485-.38-.525.084-.898.373-1.12.867-.217.488-.258 1.157-.123 2.005.136.85.384 1.463.745 1.844.361.375.814.519 1.359.432zm8.094-3.365-1.882.3-1.596-7.474 2.669-.426.809 7.6zm-1.885 3.007c-.069-.432-.006-.777.19-1.035.197-.258.516-.423.958-.493.427-.069.774-.008 1.042.181.273.19.443.494.51.916.065.406-.002.747-.201 1.021-.2.27-.511.437-.932.505-.432.069-.785.009-1.057-.18-.274-.193-.444-.499-.51-.915zM105.531 101.428l-.937.15-.962-6.03c-.08-.5-.14-.978-.181-1.43a6.22 6.22 0 0 1-.231.298c-.086.105-.486.554-1.197 1.348l-.615-.579 1.963-2.087.81-.13 1.35 8.46zm10.556-3.458c.094.59-.053 1.08-.442 1.47-.389.391-.98.65-1.775.776-.841.135-1.518.106-2.031-.085l-.142-.891a4.83 4.83 0 0 0 1.036.208c.365.033.71.024 1.034-.028.501-.08.874-.22 1.119-.422.244-.205.34-.472.288-.8-.039-.246-.181-.44-.425-.578-.24-.144-.69-.286-1.349-.426-.625-.126-1.076-.25-1.353-.371a1.813 1.813 0 0 1-.645-.473 1.49 1.49 0 0 1-.298-.718 1.432 1.432 0 0 1 .435-1.321c.373-.368.926-.61 1.658-.728a5.13 5.13 0 0 1 2.069.097l-.217.836c-.678-.16-1.276-.2-1.793-.117-.455.072-.787.198-.995.378-.209.18-.293.395-.253.646.027.17.092.307.196.413.108.106.267.197.477.274.21.078.605.175 1.186.292.796.153 1.347.348 1.654.584.31.236.499.563.566.984zm3.784.476c.17-.027.332-.065.487-.113.153-.052.274-.1.363-.141l.117.735a1.718 1.718 0 0 1-.444.195 3.26 3.26 0 0 1-.535.139c-1.227.196-1.943-.353-2.149-1.645l-.602-3.773-.909.145-.074-.463.845-.544.189-1.418.556-.089.234 1.47 1.84-.294.119.747-1.84.293.596 3.732c.061.382.198.66.412.836.214.176.479.238.795.188zm4.947.024c-.938.15-1.724-.018-2.359-.502-.631-.485-1.028-1.235-1.189-2.25-.164-1.021-.042-1.873.363-2.555.409-.682 1.038-1.091 1.887-1.227.795-.127 1.465.035 2.012.486.546.447.887 1.099 1.024 1.955l.097.608-4.369.697c.138.741.416 1.276.832 1.605.42.329.954.441 1.602.338a5.167 5.167 0 0 0 1.957-.751l.137.856c-.316.2-.622.356-.916.467-.291.113-.65.204-1.078.273zm-1.181-5.728c-.509.081-.89.312-1.142.693-.248.38-.352.867-.312 1.462l3.315-.53c-.096-.605-.305-1.046-.626-1.323-.322-.281-.734-.382-1.235-.302zm8.107 4.622a2.828 2.828 0 0 1-1.17-.044c-.364-.1-.687-.29-.969-.57l-.07.011c.106.364.185.71.238 1.043l.416 2.609-.96.153-1.467-9.188.782-.125.271.847.046-.007c.192-.387.439-.684.743-.89a2.653 2.653 0 0 1 1.091-.412c.841-.134 1.535.05 2.082.552.55.502.909 1.271 1.074 2.309.166 1.041.062 1.889-.312 2.542-.371.649-.97 1.039-1.795 1.17zm-1.058-5.735c-.648.104-1.088.358-1.32.763-.232.405-.289 1-.172 1.784l.034.214c.142.89.392 1.505.751 1.844.358.334.865.45 1.521.345.547-.088.94-.378 1.178-.87.242-.494.3-1.13.176-1.91-.126-.79-.379-1.371-.759-1.742-.376-.375-.846-.517-1.409-.428zm10.987 4.151c-.918.147-1.675-.021-2.27-.504-.592-.487-.971-1.247-1.135-2.281-.17-1.061-.046-1.921.371-2.581.421-.66 1.104-1.066 2.049-1.217.304-.049.614-.065.93-.048.315.017.566.056.754.117l-.165.863a4.37 4.37 0 0 0-.728-.097 3.034 3.034 0 0 0-.679.02c-1.288.205-1.801 1.13-1.539 2.772.124.78.376 1.353.755 1.72.383.365.883.5 1.5.4a4.327 4.327 0 0 0 1.571-.6l.136.85c-.389.288-.906.483-1.55.586zm4.055-.766-.961.154-1.436-9.004.96-.153 1.437 9.004zm7.003-4.374c.165 1.033.034 1.883-.394 2.549-.428.661-1.102 1.065-2.02 1.212-.567.09-1.091.038-1.574-.158a2.672 2.672 0 0 1-1.201-.984c-.318-.46-.531-1.022-.637-1.69-.165-1.034-.035-1.88.39-2.536.425-.662 1.096-1.065 2.014-1.212.887-.141 1.638.041 2.253.549.619.506 1.009 1.263 1.169 2.27zm-4.831.77c.129.81.39 1.402.781 1.774.392.373.902.51 1.531.409.629-.1 1.072-.387 1.329-.859.26-.477.325-1.122.195-1.936-.128-.806-.39-1.391-.784-1.755-.391-.37-.905-.503-1.542-.401-.628.1-1.07.382-1.324.846-.255.464-.317 1.105-.186 1.922zm10.843-.246c.094.59-.053 1.08-.442 1.47-.389.39-.98.65-1.775.776-.841.134-1.518.106-2.031-.085l-.142-.891c.329.106.674.175 1.036.208.365.033.71.023 1.034-.028.501-.08.874-.22 1.119-.422.244-.205.34-.472.288-.8-.04-.246-.181-.44-.425-.578-.24-.144-.69-.286-1.349-.426-.626-.126-1.077-.25-1.353-.372a1.796 1.796 0 0 1-.645-.472 1.491 1.491 0 0 1-.299-.718 1.435 1.435 0 0 1 .436-1.322c.373-.368.925-.61 1.658-.727a5.128 5.128 0 0 1 2.069.097l-.217.836c-.678-.16-1.276-.2-1.793-.118-.455.073-.787.2-.996.379-.208.18-.293.395-.253.645.027.17.093.308.197.414.108.105.267.197.477.274.21.077.605.174 1.185.291.796.154 1.348.35 1.654.585.311.235.5.563.567.984zm4.541 1.168c-.937.15-1.723-.018-2.358-.502-.631-.485-1.028-1.234-1.19-2.249-.163-1.022-.042-1.874.364-2.556.409-.682 1.038-1.091 1.887-1.227.794-.126 1.465.036 2.011.486.546.447.888 1.099 1.024 1.955l.097.608-4.368.697c.138.741.415 1.276.832 1.606.42.328.954.44 1.602.337a5.173 5.173 0 0 0 1.957-.751l.137.856c-.317.201-.622.357-.917.467-.29.114-.65.204-1.078.273zm-1.181-5.727c-.509.08-.889.312-1.141.692-.248.38-.352.867-.313 1.462l3.316-.529c-.097-.606-.306-1.047-.627-1.324-.322-.281-.733-.381-1.235-.301zm7.001-1.942c.281-.045.538-.062.769-.052l.009.913a3.296 3.296 0 0 0-.708.024c-.513.081-.92.36-1.22.835-.296.475-.395 1.022-.296 1.643l.543 3.403-.96.153-1.012-6.342.793-.126.297 1.157.046-.008c.17-.45.402-.813.699-1.09a1.936 1.936 0 0 1 1.04-.51zm7.993 4.652c.169-.027.331-.065.486-.113.154-.052.275-.1.363-.141l.117.735a1.725 1.725 0 0 1-.443.195 3.258 3.258 0 0 1-.536.139c-1.226.196-1.943-.353-2.149-1.645l-.602-3.772-.908.145-.074-.463.844-.545.189-1.418.556-.089.234 1.47 1.84-.294.119.747-1.84.293.596 3.732c.061.382.198.661.412.837.214.175.479.237.796.187zm7.215-3.715c.165 1.034.034 1.884-.394 2.55-.428.661-1.102 1.065-2.02 1.212-.567.09-1.091.038-1.574-.158a2.671 2.671 0 0 1-1.201-.984c-.318-.46-.531-1.022-.637-1.69-.165-1.034-.035-1.88.39-2.536.425-.662 1.096-1.065 2.014-1.212.887-.141 1.638.041 2.253.549.619.506 1.009 1.263 1.169 2.27zm-4.831.771c.129.81.39 1.402.781 1.774.392.373.902.51 1.531.409.629-.1 1.072-.387 1.329-.859.26-.477.325-1.122.195-1.936-.128-.806-.39-1.391-.784-1.755-.391-.37-.905-.503-1.542-.401-.628.1-1.07.382-1.324.846-.255.464-.317 1.105-.186 1.922zm8.087-4.536 1.03-.164 1.966 3.395c.436.777.721 1.342.852 1.697l.047-.007c.018-.205.069-.557.151-1.057.086-.504.377-2.054.873-4.648l1.03-.165-1.574 7.656c-.156.757-.391 1.313-.707 1.668-.31.358-.728.579-1.253.662-.293.047-.587.06-.883.04l-.123-.77a3.4 3.4 0 0 0 .723-.043c.659-.106 1.071-.55 1.234-1.336l.209-.96-3.575-5.968zm12.957 1.178c.165 1.034.034 1.884-.394 2.55-.428.661-1.102 1.065-2.02 1.212-.567.09-1.091.038-1.574-.158a2.671 2.671 0 0 1-1.201-.984c-.318-.459-.531-1.022-.637-1.69-.165-1.034-.035-1.88.39-2.536.425-.661 1.096-1.065 2.014-1.212.887-.141 1.638.042 2.253.549.619.506 1.009 1.263 1.169 2.27zm-4.831.771c.129.81.39 1.402.781 1.774.392.373.902.51 1.531.409.629-.1 1.072-.387 1.329-.859.26-.477.325-1.122.195-1.936-.129-.806-.39-1.391-.784-1.755-.392-.37-.905-.503-1.542-.401-.629.1-1.07.382-1.324.846-.255.464-.317 1.105-.186 1.922zm6.918-4.35.657 4.115c.082.517.262.884.537 1.1.276.218.665.286 1.167.206.663-.106 1.118-.364 1.365-.775.251-.412.311-1.029.18-1.85l-.532-3.333.96-.154 1.012 6.342-.793.127-.274-.829-.052.008a1.94 1.94 0 0 1-.707.849 2.77 2.77 0 0 1-1.153.439c-.771.123-1.379.032-1.823-.273-.441-.305-.725-.861-.854-1.667l-.662-4.149.972-.155zm9.251-1.594c.282-.045.538-.062.77-.051l.009.912a3.322 3.322 0 0 0-.709.024c-.513.082-.919.36-1.219.835-.296.475-.395 1.022-.296 1.644l.543 3.402-.96.153-1.012-6.341.793-.127.297 1.157.046-.007c.17-.45.402-.814.698-1.09a1.94 1.94 0 0 1 1.04-.51zm10.232-1.514.096.608-1.152.326c.13.118.254.28.374.486.12.203.201.441.245.715.099.62-.034 1.15-.399 1.588-.366.438-.919.717-1.659.835-.189.03-.369.043-.54.038-.374.282-.535.586-.483.914.028.174.12.291.276.354.156.058.407.06.754.004l1.123-.18c.686-.109 1.236-.048 1.649.183.416.23.668.62.756 1.172.112.703-.084 1.282-.589 1.738-.504.46-1.296.776-2.376.949-.829.132-1.494.08-1.995-.157-.497-.237-.79-.637-.88-1.2a1.49 1.49 0 0 1 .211-1.06c.202-.321.518-.568.95-.74a1.033 1.033 0 0 1-.465-.275.92.92 0 0 1-.248-.512 1.032 1.032 0 0 1 .088-.637c.096-.194.264-.393.504-.597a1.752 1.752 0 0 1-.914-.56 2.061 2.061 0 0 1-.484-1.062c-.111-.695.012-1.262.369-1.703.356-.444.916-.727 1.68-.85.332-.052.637-.062.916-.027l2.193-.35zm-3.876 8.214c.055.343.241.58.559.711.317.132.746.154 1.286.068.806-.129 1.383-.345 1.73-.65.351-.301.494-.658.428-1.07-.054-.344-.199-.566-.432-.668-.233-.097-.643-.099-1.229-.005l-1.152.184c-.436.07-.759.227-.968.475-.21.247-.284.565-.222.955zm-.337-5.459c.071.444.25.76.537.947.287.188.654.245 1.102.174.937-.15 1.333-.68 1.188-1.59-.152-.953-.703-1.353-1.652-1.202-.451.072-.779.25-.983.53-.204.283-.268.663-.192 1.141zm11.493-.67c.165 1.033.034 1.883-.394 2.548-.429.662-1.102 1.066-2.02 1.213-.567.09-1.092.037-1.574-.159a2.671 2.671 0 0 1-1.201-.983c-.319-.46-.531-1.023-.638-1.69-.164-1.034-.034-1.88.391-2.537.424-.66 1.096-1.064 2.014-1.211.887-.141 1.638.041 2.253.548.619.507 1.009 1.263 1.169 2.27zm-4.831.77c.129.81.389 1.402.781 1.774.392.373.902.509 1.531.409.629-.1 1.072-.387 1.328-.86.261-.476.326-1.121.196-1.935-.129-.806-.39-1.391-.785-1.756-.391-.368-.904-.502-1.541-.4-.629.1-1.07.382-1.325.846-.254.464-.316 1.104-.185 1.922zm10.927 1.514-.334-.872-.047.007c-.253.448-.526.769-.819.962-.291.188-.671.32-1.142.395-.629.1-1.148.017-1.559-.25-.406-.267-.657-.7-.753-1.297-.204-1.28.713-2.115 2.752-2.504l1.07-.206-.063-.394c-.079-.498-.245-.847-.499-1.048-.25-.205-.611-.27-1.081-.195-.529.084-1.101.342-1.717.772l-.412-.688c.285-.22.606-.407.961-.562a4.529 4.529 0 0 1 1.099-.324c.756-.12 1.342-.042 1.758.236.42.277.689.786.808 1.526l.69 4.328-.712.114zm-2.277-.33c.598-.096 1.04-.335 1.327-.717.291-.383.39-.869.295-1.46l-.091-.572-.954.194c-.759.149-1.292.356-1.598.623-.302.261-.418.614-.347 1.058.055.347.202.594.439.743.241.147.551.19.929.13zm5.934-.253-.96.153-1.437-9.004.961-.153 1.436 9.004z" fill="#000"/>
    </g>
    <defs>
        <linearGradient id="dgy4kqyggb" x1="54.114" y1="93.427" x2="80.483" y2="89.22" gradientUnits="userSpaceOnUse">
            <stop stop-color="#903"/>
            <stop offset=".494" stop-color="#ED0033"/>
            <stop offset="1" stop-color="#FF5C5E"/>
        </linearGradient>
        <filter id="2sogcox75a" x="-2" y="-2" width="293.584" height="169.923" filterUnits="userSpaceOnUse" color-interpolation-filters="sRGB">
            <feFlood flood-opacity="0" result="BackgroundImageFix"/>
            <feColorMatrix in="SourceAlpha" values="0 0 0 0 0 0 0 0 0 0 0 0 0 0 0 0 0 0 127 0" result="hardAlpha"/>
            <feOffset dy="4"/>
            <feGaussianBlur stdDeviation="16"/>
            <feComposite in2="hardAlpha" operator="out"/>
            <feColorMatrix values="0 0 0 0 0 0 0 0 0 0 0 0 0 0 0 0 0 0 0.24 0"/>
            <feBlend in2="BackgroundImageFix" result="effect1_dropShadow_17_5434"/>
            <feBlend in="SourceGraphic" in2="effect1_dropShadow_17_5434" result="shape"/>
        </filter>
    </defs>
</svg>
