<svg width="231" height="116" viewBox="0 0 231 116" fill="none" xmlns="http://www.w3.org/2000/svg">
    <g filter="url(#5fbzsro4ra)">
        <rect x="20.219" y="11" width="196" height="72" rx="16" transform="rotate(4.157 20.219 11)" fill="#fff"/>
        <path d="m62.267 39.456-3.99-.29.097-1.33a1.333 1.333 0 0 0-1.233-1.426l-13.298-.967a1.333 1.333 0 0 0-1.427 1.234l-.096 1.33-3.99-.29a1.333 1.333 0 0 0-1.426 1.233l-.29 3.99a5.333 5.333 0 0 0 4.933 5.705l2.047.149a8 8 0 0 0 4.417 2.874l-.202 2.78-1.33-.097a4 4 0 0 0-4.28 3.7l-.192 2.66a1.333 1.333 0 0 0 1.233 1.426l10.638.773a1.334 1.334 0 0 0 1.427-1.233l.193-2.66a4 4 0 0 0-3.7-4.28l-1.33-.096.203-2.78a8 8 0 0 0 4.785-2.205l2.048.149a5.333 5.333 0 0 0 5.706-4.933l.29-3.99a1.333 1.333 0 0 0-1.233-1.426zm-20.527 6.53a2.667 2.667 0 0 1-2.467-2.854l.194-2.66 2.66.194-.194 2.66a7.998 7.998 0 0 0 .272 2.693l-.465-.034zm9.865 11.411a1.334 1.334 0 0 1 1.233 1.427l-.096 1.33-7.98-.58.097-1.33a1.333 1.333 0 0 1 1.427-1.233l5.32.386zm3.626-13.105a5.333 5.333 0 1 1-10.638-.773l.386-5.32 10.639.774-.387 5.32zm5.32.387a2.667 2.667 0 0 1-2.853 2.466l-.466-.034c.367-.831.59-1.72.659-2.626l.193-2.66 2.66.194-.193 2.66z" fill="url(#4d6eqa42sb)"/>
        <path d="M88.552 40.46c-.909-.066-1.638.226-2.186.875-.548.644-.867 1.577-.956 2.798-.184 2.54.677 3.88 2.583 4.018.8.058 1.784-.072 2.95-.39l-.147 2.027c-.963.322-2.022.44-3.175.357-1.657-.12-2.888-.714-3.693-1.78-.805-1.072-1.139-2.548-1.002-4.429.086-1.184.377-2.205.873-3.062.496-.862 1.164-1.5 2.003-1.914.845-.42 1.81-.59 2.896-.51 1.107.08 2.199.428 3.277 1.045l-.922 1.907a12.934 12.934 0 0 0-1.247-.624 3.845 3.845 0 0 0-1.254-.318zm6.668 5.686c-.063.862.03 1.524.279 1.986.253.462.7.717 1.339.763.633.046 1.104-.139 1.41-.555.313-.421.501-1.066.564-1.933.063-.862-.03-1.52-.28-1.97-.249-.453-.693-.701-1.332-.748-.633-.046-1.106.136-1.418.547-.312.406-.499 1.042-.562 1.91zm6.023.438c-.103 1.418-.557 2.5-1.364 3.245-.806.746-1.876 1.07-3.211.973-.837-.06-1.561-.296-2.174-.706a3.69 3.69 0 0 1-1.357-1.689c-.293-.71-.407-1.523-.34-2.437.103-1.424.555-2.503 1.355-3.239.8-.735 1.873-1.054 3.219-.956.836.06 1.56.296 2.173.706.612.41 1.065.968 1.359 1.673.293.705.407 1.515.34 2.43zm9.687 5.098-2.376-.173.37-5.088c.045-.629-.032-1.107-.233-1.435-.2-.333-.545-.517-1.033-.553-.665-.048-1.161.14-1.49.566-.328.42-.53 1.144-.604 2.173l-.298 4.098-2.377-.173.633-8.71 1.816.131.238 1.138.133.01a2.494 2.494 0 0 1 1.16-.872c.483-.184 1.021-.255 1.613-.212 1.013.074 1.762.405 2.246.994.485.583.69 1.392.615 2.425l-.413 5.68zm10.662-7.983-.088 1.208-1.389.252c.221.407.314.853.279 1.336-.068.935-.448 1.64-1.141 2.118-.687.472-1.61.666-2.768.582l-.427-.054-.348-.065c-.258.17-.395.368-.412.597-.024.343.399.546 1.272.61l1.481.107c.955.07 1.668.327 2.137.774.474.447.682 1.068.624 1.863-.074 1.018-.557 1.776-1.45 2.276-.887.499-2.126.691-3.716.576-1.215-.089-2.129-.37-2.743-.842-.608-.467-.884-1.083-.829-1.846.038-.525.234-.952.587-1.282.353-.329.851-.546 1.496-.65a1.613 1.613 0 0 1-.602-.553 1.237 1.237 0 0 1-.218-.776c.024-.333.14-.601.349-.805.208-.21.502-.407.881-.594a2.363 2.363 0 0 1-1.022-1.03c-.233-.456-.328-.98-.285-1.572.069-.95.431-1.663 1.087-2.137.656-.475 1.558-.67 2.706-.587.244.018.531.062.86.133.335.066.548.113.64.14l3.039.221zm-7.447 9.454c-.024.327.113.596.411.806.304.21.738.335 1.304.376.852.062 1.528-.006 2.028-.205.501-.199.765-.5.795-.906.024-.327-.103-.563-.38-.709-.276-.145-.713-.24-1.311-.283l-1.231-.09c-.436-.031-.81.044-1.12.225-.306.186-.472.448-.496.786zm1.38-7.028c-.034.473.045.855.238 1.145.198.292.518.453.959.485.447.033.784-.081 1.012-.341.228-.26.359-.627.393-1.1.077-1.049-.316-1.605-1.179-1.668-.872-.063-1.347.43-1.423 1.48zm12.382-2.131c.322.023.588.066.798.128l-.341 2.216a2.741 2.741 0 0 0-.696-.13c-.758-.054-1.365.097-1.819.456-.449.36-.699.89-.75 1.59l-.322 4.434-2.377-.173.633-8.711 1.8.13.244 1.491.117.009a3.264 3.264 0 0 1 1.177-1.098 2.707 2.707 0 0 1 1.536-.342zm7.272 9.45-.374-1.218-.062-.004c-.437.475-.875.795-1.315.962-.435.161-.993.217-1.673.168-.837-.06-1.479-.348-1.927-.86-.443-.513-.633-1.211-.569-2.094.067-.925.439-1.582 1.115-1.972.681-.394 1.676-.567 2.983-.52l1.515.064.028-.382c.064-.883-.356-1.357-1.26-1.423-.696-.05-1.529.1-2.5.453l-.671-1.663c1.041-.451 2.172-.633 3.393-.544 1.168.085 2.046.404 2.632.959.587.554.842 1.35.767 2.39l-.422 5.805-1.66-.12zm-.408-4.087-.922-.036c-.692-.03-1.215.058-1.57.262-.354.204-.548.54-.582 1.007-.049.67.311 1.033 1.08 1.09.551.04 1.001-.087 1.352-.38.355-.293.552-.702.59-1.226l.052-.717zm8.318 2.915c.416.03.921-.024 1.516-.164l-.128 1.769c-.612.222-1.349.301-2.211.239-.95-.07-1.627-.359-2.028-.868-.396-.515-.559-1.252-.49-2.213l.306-4.2-1.138-.083.073-1.005 1.367-.7.819-1.789 1.52.11-.135 1.855 2.439.177-.13 1.785-2.439-.178-.305 4.2c-.025.338.051.594.226.769.181.175.427.273.738.296zm9.405-.17c-.065.893-.426 1.551-1.084 1.973-.652.423-1.596.59-2.832.5a8.506 8.506 0 0 1-1.611-.25 5.997 5.997 0 0 1-1.228-.466l.143-1.964c.426.24.91.45 1.45.63.546.181 1.029.287 1.45.318.862.062 1.311-.156 1.348-.655a.615.615 0 0 0-.139-.464c-.106-.128-.293-.274-.563-.44-.27-.171-.631-.373-1.084-.604-.65-.33-1.125-.625-1.424-.887a2.26 2.26 0 0 1-.626-.868c-.118-.322-.16-.708-.128-1.16.057-.774.399-1.35 1.027-1.727.633-.383 1.501-.534 2.602-.454a7.262 7.262 0 0 1 3.012.909l-.841 1.662a13.187 13.187 0 0 0-1.19-.549 3.852 3.852 0 0 0-1.148-.264c-.701-.05-1.066.114-1.093.493-.016.213.083.405.295.577.217.173.696.44 1.437.802.661.325 1.141.618 1.44.88.3.262.514.554.642.877.128.323.176.7.145 1.13zm3.936-.913-1.902-.138.156-7.641 2.696.196-.95 7.583zm-2.524 2.496c.032-.437.173-.758.423-.964.25-.207.598-.294 1.045-.261.431.031.755.17.972.415.223.246.318.582.287 1.008-.03.41-.173.726-.429.948-.256.216-.597.31-1.023.278-.436-.032-.765-.17-.988-.416-.222-.251-.317-.587-.287-1.008zM83.94 63.473l2.59-4.106 1.075.078-3.232 5.023-.24 3.314-1.006-.073.238-3.267-2.463-5.484 1.087.08 1.951 4.435zm9.84 1.785c-.076 1.044-.398 1.84-.966 2.39-.569.547-1.317.787-2.244.72-.573-.042-1.071-.214-1.496-.515a2.67 2.67 0 0 1-.945-1.232c-.205-.52-.282-1.117-.234-1.791.076-1.044.396-1.837.96-2.38.565-.547 1.311-.786 2.238-.719.896.066 1.586.415 2.068 1.05.487.634.693 1.46.62 2.477zm-4.88-.355c-.059.818.06 1.453.356 1.906.296.452.761.701 1.396.748.635.046 1.132-.132 1.49-.533.362-.404.573-1.017.633-1.84.06-.814-.061-1.443-.362-1.888-.296-.449-.766-.696-1.409-.743-.635-.046-1.13.128-1.483.521-.353.393-.56 1.003-.62 1.829zm7.73-2.652-.301 4.155c-.038.522.052.92.271 1.195.22.274.582.43 1.089.467.67.049 1.172-.099 1.506-.443.339-.344.538-.93.598-1.76l.245-3.366.97.07-.466 6.405-.8-.058-.078-.87-.053-.003a1.935 1.935 0 0 1-.882.664c-.363.143-.77.197-1.222.164-.78-.056-1.35-.284-1.713-.682-.359-.398-.509-1.005-.45-1.819l.305-4.19.982.071zm13.467 7.418.301-4.144c.038-.522-.052-.92-.271-1.194-.219-.275-.582-.43-1.088-.467-.674-.05-1.18.098-1.519.442-.334.344-.532.932-.592 1.766l-.244 3.349-.97-.07.661-9.094.97.07-.2 2.753a6.018 6.018 0 0 1-.106.82l.058.005c.213-.294.502-.516.865-.666a2.652 2.652 0 0 1 1.229-.18c.783.056 1.356.286 1.718.688.367.399.521 1.003.462 1.814l-.304 4.178-.97-.07zm6.908.502-.127-.926-.047-.003c-.348.378-.687.627-1.017.748-.326.118-.727.159-1.202.124-.635-.046-1.122-.246-1.46-.6-.335-.353-.48-.831-.437-1.435.094-1.293 1.178-1.896 3.251-1.808l1.09.044.029-.398c.036-.502-.046-.88-.247-1.134-.196-.257-.532-.403-1.008-.437-.534-.04-1.149.08-1.847.359l-.244-.764a4.581 4.581 0 0 1 1.063-.328c.385-.07.767-.091 1.145-.064.763.056 1.316.266 1.658.632.345.366.491.923.436 1.67l-.317 4.372-.719-.052zm-2.142-.843c.604.044 1.089-.088 1.456-.394.371-.306.578-.757.621-1.353l.042-.578-.973-.03c-.773-.029-1.339.052-1.697.24-.355.187-.548.504-.581.952-.025.35.061.625.258.823.201.199.492.312.874.34zm6.268 1.143-1.966-6.582 1.04.075 1.103 3.9c.248.91.389 1.5.424 1.769l.047.003c.058-.203.223-.62.496-1.25.277-.634.892-2.013 1.846-4.137l1.04.076-2.897 6.228-1.133-.082zm7.29.647c-.946-.069-1.673-.412-2.181-1.028-.503-.616-.718-1.437-.644-2.461.075-1.033.388-1.835.939-2.406.555-.57 1.26-.824 2.117-.762.803.058 1.419.37 1.848.933.429.56.612 1.272.549 2.137l-.044.614-4.412-.32c-.035.753.112 1.337.442 1.753.334.416.828.647 1.483.695a5.17 5.17 0 0 0 2.077-.284l-.063.865a4.983 4.983 0 0 1-.999.245 5.29 5.29 0 0 1-1.112.019zm.161-5.846c-.515-.037-.938.1-1.27.413-.328.313-.541.764-.639 1.352l3.349.243c.044-.611-.058-1.089-.307-1.432-.249-.347-.627-.539-1.133-.576zm7.942 6.317-.97-.07.66-9.094.971.071-.661 9.093zm4.754.463c-.947-.069-1.674-.411-2.181-1.028-.504-.616-.718-1.436-.644-2.461.075-1.032.388-1.834.939-2.405.554-.57 1.26-.825 2.117-.763.803.059 1.419.37 1.848.933.429.56.612 1.273.549 2.138l-.044.613-4.413-.32c-.035.753.113 1.338.443 1.753.334.416.828.648 1.483.695a5.168 5.168 0 0 0 2.076-.283l-.062.864a4.982 4.982 0 0 1-.999.245c-.309.044-.68.05-1.112.02zm.16-5.845c-.514-.038-.937.1-1.269.413-.328.313-.541.763-.639 1.351l3.349.244c.044-.612-.058-1.09-.307-1.433-.249-.347-.627-.538-1.134-.575zm5.266 6.122-1.966-6.582 1.04.076 1.104 3.899c.247.91.388 1.5.423 1.77l.047.003c.058-.204.223-.62.496-1.25.277-.635.893-2.014 1.846-4.138l1.04.076-2.896 6.228-1.134-.082zm7.29.647c-.946-.069-1.673-.411-2.181-1.028-.503-.616-.718-1.436-.643-2.461.075-1.032.388-1.834.938-2.405.555-.57 1.261-.825 2.118-.763.802.059 1.418.37 1.847.934.429.56.613 1.272.55 2.137l-.045.613-4.412-.32c-.035.753.112 1.338.442 1.753.334.416.829.648 1.483.695.69.05 1.382-.044 2.077-.283l-.063.865a4.973 4.973 0 0 1-.999.244c-.308.044-.679.05-1.112.02zm.161-5.845c-.514-.038-.938.1-1.27.413-.328.313-.541.763-.638 1.352l3.348.243c.045-.612-.058-1.09-.307-1.432-.249-.347-.627-.54-1.133-.576zm4.833 6.09-.97-.07.661-9.093.97.07-.661 9.094zm4.754.464c-.947-.07-1.674-.412-2.181-1.028-.504-.617-.718-1.437-.644-2.462.075-1.032.388-1.834.939-2.405.554-.57 1.26-.825 2.117-.762.803.058 1.419.37 1.848.933.429.56.612 1.272.549 2.137l-.044.614-4.412-.32c-.036.752.112 1.337.442 1.753.334.416.828.647 1.483.695a5.175 5.175 0 0 0 2.077-.284l-.063.865a4.982 4.982 0 0 1-.999.245c-.309.044-.679.05-1.112.019zm.161-5.846c-.515-.037-.938.1-1.27.413-.328.313-.541.764-.639 1.352l3.349.243c.044-.611-.058-1.089-.307-1.432-.249-.347-.627-.539-1.133-.576zm8.285 5.478-.053-.003c-.495.618-1.189.894-2.081.83-.838-.062-1.47-.395-1.896-1.002-.422-.606-.594-1.437-.518-2.493.077-1.056.371-1.86.881-2.41s1.181-.795 2.015-.734c.869.063 1.512.427 1.93 1.092l.076.005-.007-.465.009-.451.189-2.607.97.07-.66 9.094-.789-.057-.066-.869zm-1.953.023c.663.048 1.155-.096 1.477-.433.326-.34.519-.912.577-1.715l.015-.204c.066-.908-.039-1.566-.315-1.974-.272-.411-.739-.64-1.401-.689-.569-.041-1.021.15-1.357.571-.332.419-.528 1.031-.586 1.838-.06.818.045 1.446.315 1.885.27.438.695.679 1.275.721zm9.357-5.06-.302 4.155c-.038.522.052.92.271 1.195.219.274.582.43 1.088.467.671.049 1.173-.1 1.507-.443.338-.343.538-.93.598-1.76l.245-3.366.97.07-.466 6.405-.8-.058-.078-.87-.053-.003a1.935 1.935 0 0 1-.882.664c-.363.142-.77.197-1.222.164-.78-.056-1.351-.284-1.713-.682-.359-.398-.509-1.005-.45-1.819l.305-4.19.982.071zm8.946 7.207a2.831 2.831 0 0 1-1.129-.311 2.189 2.189 0 0 1-.813-.776l-.07-.005a8.6 8.6 0 0 1-.007 1.068l-.192 2.636-.97-.07.675-9.28.789.057.07.886.047.003c.275-.332.584-.564.926-.696a2.655 2.655 0 0 1 1.157-.151c.849.062 1.482.4 1.9 1.013.421.615.594 1.446.518 2.494-.077 1.052-.372 1.853-.886 2.403-.509.546-1.181.79-2.015.729zm.282-5.825c-.654-.048-1.141.099-1.459.44-.319.341-.511.907-.576 1.697l-.016.216c-.065.9.038 1.556.31 1.967.272.408.739.636 1.401.684.554.04 1.002-.153 1.347-.578.348-.425.55-1.031.607-1.818.059-.799-.055-1.422-.34-1.87-.28-.45-.705-.697-1.274-.738zm5.134 3.733-.614-.044.152-6.21 1.21.087-.748 6.167zm-1.143 1.662c.039-.53.292-.778.759-.744.226.017.394.097.505.242.115.146.163.347.144.604-.018.25-.094.44-.229.571-.135.127-.313.183-.535.167a.716.716 0 0 1-.489-.218c-.124-.134-.175-.341-.155-.622z" fill="#000"/>
    </g>
    <defs>
        <linearGradient id="4d6eqa42sb" x1="36.227" y1="48.258" x2="62.824" y2="50.191" gradientUnits="userSpaceOnUse">
            <stop stop-color="#903"/>
            <stop offset=".494" stop-color="#ED0033"/>
            <stop offset="1" stop-color="#FF5C5E"/>
        </linearGradient>
        <filter id="5fbzsro4ra" x="-1" y="-1" width="232.703" height="118.017" filterUnits="userSpaceOnUse" color-interpolation-filters="sRGB">
            <feFlood flood-opacity="0" result="BackgroundImageFix"/>
            <feColorMatrix in="SourceAlpha" values="0 0 0 0 0 0 0 0 0 0 0 0 0 0 0 0 0 0 127 0" result="hardAlpha"/>
            <feOffset dy="4"/>
            <feGaussianBlur stdDeviation="8"/>
            <feComposite in2="hardAlpha" operator="out"/>
            <feColorMatrix values="0 0 0 0 0 0 0 0 0 0 0 0 0 0 0 0 0 0 0.32 0"/>
            <feBlend in2="BackgroundImageFix" result="effect1_dropShadow_17_5439"/>
            <feBlend in="SourceGraphic" in2="effect1_dropShadow_17_5439" result="shape"/>
        </filter>
    </defs>
</svg>
