<svg width="275" height="148" viewBox="0 0 275 148" fill="none" xmlns="http://www.w3.org/2000/svg">
    <g filter="url(#xixrcvlnva)">
        <rect x="32" y="41.122" width="207" height="72" rx="16" transform="rotate(-3.635 32 41.122)" fill="#fff"/>
        <path d="M78.172 65.925a1.333 1.333 0 0 0-.677-.772l-7.173-3.552a1.334 1.334 0 0 0-1.793.595l-2.77 5.6-3.457-5.205a1.335 1.335 0 0 0-1.854-.363l-6.665 4.431a1.335 1.335 0 0 0-.574.852c-.067.343.004.698.196.99l5.9 8.75a7.88 7.88 0 0 0-.733 3.6 8 8 0 1 0 14.86-4.578l4.618-9.325a1.334 1.334 0 0 0 .122-1.023zm-21.744 2.21 4.435-2.954 4.76 7.206a7.92 7.92 0 0 0-4.763 2.414l-4.432-6.666zm10.466 17.532a5.333 5.333 0 1 1-.676-10.645 5.333 5.333 0 0 1 .676 10.645zm4.608-11.582a7.869 7.869 0 0 0-2.572-1.373l-1.459-2.353 2.866-5.78 4.773 2.37-3.608 7.136z" fill="url(#l3cxvwbvcb)"/>
        <path d="m103.859 70.626-2.417.154-.597-9.388-3.095.197-.128-2.011 8.608-.547.128 2.011-3.096.197.597 9.387zm6.279-4.79c.055.863.236 1.506.545 1.93.314.424.791.615 1.43.575.634-.04 1.075-.288 1.323-.742.253-.46.351-1.124.296-1.992-.055-.862-.236-1.5-.544-1.914-.308-.414-.782-.6-1.421-.56-.634.04-1.078.285-1.331.735-.254.444-.353 1.1-.298 1.968zm6.027-.383c.09 1.419-.214 2.552-.912 3.4-.697.849-1.714 1.315-3.05 1.4-.837.053-1.586-.082-2.249-.405a3.69 3.69 0 0 1-1.574-1.49c-.386-.664-.609-1.453-.667-2.368-.09-1.424.211-2.555.904-3.392.693-.838 1.713-1.3 3.059-1.385.837-.053 1.587.082 2.249.405a3.65 3.65 0 0 1 1.573 1.474c.386.66.609 1.446.667 2.361zm7.039 4.101c-1.023.065-1.85-.256-2.48-.962l-.124.008c.129.723.197 1.14.205 1.255l.224 3.532-2.378.151-.797-12.553 1.933-.123.407 1.11.109-.007c.502-.898 1.298-1.382 2.39-1.451 1.029-.066 1.86.28 2.493 1.039.632.758.994 1.844 1.083 3.258.059.93-.027 1.748-.259 2.451-.227.704-.581 1.25-1.062 1.641-.481.39-1.063.608-1.744.651zm-1.154-7.09c-.588.038-1.005.247-1.252.628-.248.376-.35.98-.308 1.812l.017.258c.059.935.239 1.597.541 1.985.306.387.761.562 1.364.524 1.065-.068 1.542-.98 1.431-2.737-.055-.858-.228-1.491-.52-1.9-.288-.416-.712-.605-1.273-.57zm18.414 5.837-2.378.151-.323-5.091c-.04-.63-.176-1.093-.409-1.391-.228-.304-.568-.441-1.021-.413-.608.039-1.035.29-1.283.755-.247.465-.338 1.209-.273 2.233l.261 4.1-2.378.152-.554-8.717 1.817-.115.39 1.094.133-.008a2.39 2.39 0 0 1 .954-1c.427-.257.927-.404 1.499-.44 1.304-.083 2.215.288 2.732 1.11l.21-.013a2.36 2.36 0 0 1 .97-1.009c.443-.252.95-.397 1.522-.433.988-.063 1.75.145 2.286.622.542.472.848 1.267.919 2.384l.361 5.684-2.386.151-.323-5.09c-.04-.63-.177-1.093-.41-1.392-.228-.304-.568-.441-1.02-.413-.582.037-1.006.273-1.27.707-.26.434-.361 1.104-.303 2.008l.277 4.374zm13.419-.852-.536-1.156-.062.004c-.368.53-.759.907-1.173 1.131-.409.22-.953.35-1.634.394-.837.053-1.513-.144-2.026-.592-.509-.448-.791-1.113-.847-1.997-.059-.925.22-1.627.837-2.104.621-.483 1.583-.79 2.885-.92l1.509-.142-.024-.382c-.056-.884-.536-1.297-1.441-1.24-.696.045-1.502.307-2.416.788l-.889-1.556c.97-.589 2.065-.922 3.287-1 1.169-.074 2.082.124 2.738.594.656.47 1.017 1.224 1.083 2.264l.369 5.808-1.66.106zm-.959-3.994-.918.09c-.69.064-1.196.221-1.52.471-.323.25-.47.61-.44 1.078.043.67.449.98 1.218.932.551-.035.98-.221 1.287-.56.313-.337.452-.77.419-1.294l-.046-.717zm9.377-5.457c.322-.02.591-.014.807.019l-.038 2.241a2.727 2.727 0 0 0-.706-.033c-.759.048-1.339.28-1.741.697-.396.417-.572.976-.527 1.678l.281 4.436-2.378.151-.553-8.716 1.801-.115.444 1.444.117-.008a3.264 3.264 0 0 1 1.016-1.247c.444-.33.936-.513 1.477-.547zm4.933 3.843.953-1.391 2.272-2.806 2.682-.17-3.222 4 3.986 4.703-2.745.174-2.734-3.372-.97.883.172 2.714-2.378.15-.77-12.131 2.378-.151.344 5.41.001 1.99.031-.003zm13.835 1.282c.057.894-.211 1.595-.805 2.102-.589.507-1.502.8-2.739.879-.634.04-1.178.03-1.63-.03a5.997 5.997 0 0 1-1.28-.294l-.124-1.965c.455.18.962.322 1.522.428.565.105 1.058.144 1.479.117.863-.055 1.279-.332 1.247-.83a.615.615 0 0 0-.2-.442c-.122-.112-.328-.232-.618-.36-.29-.133-.676-.283-1.156-.451-.688-.238-1.199-.467-1.531-.686a2.26 2.26 0 0 1-.738-.775c-.16-.303-.255-.68-.283-1.133-.05-.774.211-1.39.782-1.85.576-.464 1.415-.731 2.517-.801a7.265 7.265 0 0 1 3.108.49l-.609 1.762c-.448-.16-.866-.287-1.253-.383a3.852 3.852 0 0 0-1.173-.105c-.702.045-1.04.257-1.016.636.013.213.137.39.37.532.239.142.75.342 1.533.6.699.232 1.214.458 1.546.676.333.22.584.48.755.782.17.303.269.67.296 1.1zm3.776-1.438-1.902.121-.882-7.592 2.698-.171.086 7.642zm-2.162 2.815c-.027-.437.069-.774.288-1.013.22-.238.553-.371 1-.4.432-.027.772.066 1.02.28.254.214.394.533.421.96.026.41-.073.743-.296.997-.225.249-.55.387-.976.414-.437.028-.782-.065-1.036-.278-.253-.22-.394-.54-.421-.96zM102.247 84.473l2.009-4.42 1.076-.068-2.521 5.415.21 3.316-1.006.064-.207-3.27-3.183-5.099 1.087-.069 2.535 4.131zm9.991.434c.066 1.045-.145 1.878-.634 2.5-.489.618-1.198.957-2.126 1.016-.573.036-1.09-.066-1.551-.306a2.668 2.668 0 0 1-1.103-1.093c-.274-.487-.432-1.069-.475-1.743-.066-1.045.143-1.874.629-2.488.485-.618 1.192-.957 2.119-1.015.897-.057 1.627.196 2.192.759.568.562.884 1.353.949 2.37zm-4.883.31c.052.819.255 1.432.61 1.84.355.408.85.592 1.485.552.636-.04 1.104-.284 1.404-.73.304-.45.43-1.086.378-1.908-.052-.815-.257-1.422-.615-1.822-.354-.404-.853-.586-1.496-.545-.636.04-1.102.28-1.399.717-.297.438-.42 1.07-.367 1.896zm7.299-3.675.264 4.158c.034.522.177.904.431 1.147.254.242.635.347 1.142.315.67-.043 1.148-.257 1.433-.643.288-.387.406-.995.353-1.825l-.214-3.368.971-.062.407 6.409-.801.05-.195-.85-.052.003a1.94 1.94 0 0 1-.785.778c-.34.19-.736.3-1.188.328-.78.05-1.377-.098-1.79-.444-.409-.346-.64-.926-.692-1.74l-.266-4.194.982-.062zm13.904 5.552-.251-.9-.047.003c-.294.421-.597.715-.907.88-.307.16-.698.255-1.174.285-.635.04-1.145-.091-1.528-.396-.379-.305-.588-.76-.627-1.363-.082-1.295.91-2.039 2.976-2.232l1.086-.105-.026-.397c-.032-.503-.164-.867-.398-1.09-.23-.229-.582-.328-1.058-.297-.534.034-1.128.236-1.781.606l-.346-.724a4.594 4.594 0 0 1 1.01-.469 4.542 4.542 0 0 1 1.125-.218c.764-.049 1.34.085 1.728.4.392.317.611.849.659 1.597l.278 4.374-.719.046zm-2.237-.545c.605-.039 1.068-.234 1.39-.588.326-.353.47-.828.432-1.424l-.037-.58-.968.103c-.77.077-1.32.233-1.65.47-.325.231-.474.571-.446 1.02.023.35.145.611.367.78.226.17.53.243.912.219zm7.471-6.34c.284-.018.541-.01.77.022l-.077.909a3.309 3.309 0 0 0-.707-.044c-.519.033-.95.272-1.293.717-.34.444-.49.98-.45 1.608l.218 3.438-.97.062-.408-6.41.802-.05.186 1.18.047-.003c.211-.432.477-.772.798-1.02a1.939 1.939 0 0 1 1.084-.409zm5.094 6.346c-.947.06-1.714-.18-2.3-.723-.583-.542-.907-1.326-.972-2.351-.065-1.033.136-1.87.604-2.51.472-.64 1.137-.988 1.995-1.043.803-.05 1.455.174 1.956.674.502.497.78 1.178.835 2.043l.039.614-4.415.28c.067.752.292 1.311.676 1.678.387.367.908.53 1.563.488a5.171 5.171 0 0 0 2.019-.563l.055.866c-.333.17-.652.296-.956.377-.3.086-.666.143-1.099.17zm-.633-5.813c-.515.032-.916.226-1.202.581-.283.355-.433.83-.45 1.426l3.351-.213c-.039-.612-.205-1.071-.499-1.377-.293-.31-.694-.45-1.2-.417zm8.725 5.182-.971.061-.407-6.409.97-.061.408 6.409zm-1.57-8.08c-.015-.221.03-.387.132-.495a.57.57 0 0 1 .4-.184.572.572 0 0 1 .413.132c.12.099.187.257.201.475.014.218-.033.386-.139.502a.571.571 0 0 1-.393.183.569.569 0 0 1-.42-.131c-.116-.103-.181-.263-.194-.481zm8.014 7.67-.264-4.146c-.033-.522-.177-.904-.431-1.146-.254-.243-.634-.348-1.141-.316-.671.043-1.15.256-1.439.638-.289.382-.407.99-.354 1.825l.214 3.362-.971.062-.407-6.409.789-.05.214.867.047-.003c.178-.328.442-.59.789-.784a2.701 2.701 0 0 1 1.182-.34c.772-.048 1.365.102 1.779.451.413.346.646.928.698 1.747l.265 4.18-.97.062zm8.108-1.202c.171-.01.336-.033.494-.066.159-.038.284-.073.375-.106l.048.742a1.747 1.747 0 0 1-.46.153 3.275 3.275 0 0 1-.547.087c-1.24.08-1.901-.534-1.984-1.84l-.242-3.813-.918.058-.03-.468.893-.461.322-1.395.561-.035.095 1.485 1.859-.118.048.754-1.859.118.239 3.772c.025.386.135.676.332.871.196.195.454.283.774.262zm6.592.269-.263-4.146c-.033-.523-.177-.905-.431-1.147s-.635-.347-1.141-.315c-.675.043-1.156.257-1.445.643-.285.386-.4.996-.347 1.83l.212 3.352-.97.061-.578-9.099.97-.061.175 2.754c.021.331.023.607.006.827l.058-.003a1.97 1.97 0 0 1 .767-.777 2.653 2.653 0 0 1 1.194-.346c.783-.05 1.382.1 1.795.45.418.345.652.923.704 1.734l.265 4.18-.971.063zm5.686-.244c-.947.06-1.714-.18-2.301-.723-.582-.542-.906-1.326-.971-2.351-.066-1.033.136-1.87.604-2.51.472-.641 1.137-.989 1.994-1.043.803-.051 1.456.174 1.957.674.501.497.78 1.178.835 2.043l.039.614-4.415.28c.067.752.292 1.31.676 1.678.387.367.908.53 1.563.488a5.171 5.171 0 0 0 2.019-.563l.055.865c-.333.17-.652.296-.956.378-.3.086-.666.142-1.099.17zm-.634-5.814c-.514.033-.915.227-1.202.582-.282.354-.432.83-.449 1.426l3.351-.213c-.039-.612-.205-1.071-.499-1.378-.294-.31-.694-.449-1.201-.416zm9.781 4.428a3.43 3.43 0 0 0 .495-.066 3.61 3.61 0 0 0 .375-.106l.047.742a1.718 1.718 0 0 1-.46.153c-.2.048-.383.077-.546.087-1.24.08-1.901-.534-1.984-1.84l-.242-3.813-.918.058-.03-.468.892-.461.323-1.395.561-.035.094 1.485 1.86-.118.048.754-1.86.118.24 3.772c.024.386.135.676.331.871.197.195.455.283.774.262zm7.535-3.014c.067 1.044-.145 1.878-.634 2.5-.489.618-1.197.957-2.125 1.015-.573.037-1.09-.065-1.552-.306a2.674 2.674 0 0 1-1.103-1.093c-.273-.487-.432-1.068-.474-1.742-.067-1.045.143-1.875.628-2.489.486-.618 1.192-.956 2.12-1.015.897-.057 1.627.196 2.191.76.568.562.885 1.352.949 2.37zm-4.883.31c.052.818.256 1.432.61 1.84.355.408.85.591 1.486.551.635-.04 1.103-.283 1.404-.729.304-.45.43-1.086.377-1.909-.051-.814-.256-1.422-.614-1.822-.355-.404-.854-.585-1.497-.545-.635.04-1.102.28-1.399.717-.297.438-.419 1.07-.367 1.897zm9.784 2.719a2.826 2.826 0 0 1-1.16-.155 2.182 2.182 0 0 1-.911-.659l-.07.005c.07.37.116.724.138 1.06l.167 2.637-.971.061-.59-9.286.79-.05.19.869.047-.003c.227-.367.501-.639.823-.816.321-.177.697-.279 1.125-.306.85-.054 1.524.195 2.02.747.501.55.785 1.35.852 2.4.066 1.052-.117 1.886-.552 2.5-.431.611-1.063.943-1.898.996zm-.51-5.81c-.655.042-1.117.253-1.386.634-.269.382-.383.968-.34 1.76l.013.216c.058.9.249 1.536.574 1.907.324.367.818.53 1.481.487.553-.035.972-.286 1.255-.754.287-.469.406-1.097.356-1.884-.051-.8-.247-1.401-.59-1.806-.339-.41-.793-.596-1.363-.56zm11.128 5.018-.947.06-.387-6.093a20.784 20.784 0 0 1-.045-1.442 6.203 6.203 0 0 1-.259.275 84.26 84.26 0 0 1-1.319 1.229l-.557-.634 2.152-1.892.819-.052.543 8.549zm8.651-4.853c.094 1.477-.07 2.596-.491 3.354-.418.759-1.106 1.168-2.065 1.23-.92.058-1.644-.27-2.171-.984-.527-.718-.836-1.799-.928-3.24-.094-1.49.068-2.61.486-3.36.418-.751 1.102-1.157 2.054-1.217.927-.06 1.655.272 2.182.994.532.722.842 1.796.933 3.223zm-4.672.297c.079 1.243.283 2.14.611 2.69.328.548.812.8 1.452.76.647-.041 1.096-.357 1.348-.949.256-.595.345-1.507.267-2.735-.078-1.228-.281-2.117-.61-2.668-.325-.555-.811-.811-1.458-.77-.639.04-1.087.353-1.344.936-.256.58-.345 1.492-.266 2.736zm6.581-2.139c.042.663.145 1.156.311 1.478.165.322.409.473.733.452.639-.04.917-.723.833-2.049-.084-1.317-.445-1.956-1.085-1.915-.323.02-.547.199-.67.535-.124.337-.164.837-.122 1.5zm2.678-.17c.056.89-.051 1.571-.322 2.046-.268.471-.69.725-1.267.762-.546.034-.985-.17-1.319-.615-.33-.445-.522-1.102-.577-1.971-.057-.885.045-1.561.305-2.028.264-.467.681-.718 1.25-.754.565-.036 1.015.168 1.348.613.334.444.528 1.094.582 1.947zm2.685 3.27c.043.667.146 1.161.312 1.484.165.318.411.466.738.446.328-.021.559-.198.695-.532.135-.337.181-.843.138-1.517-.042-.667-.152-1.155-.328-1.465-.176-.314-.428-.46-.756-.44-.327.021-.553.198-.676.531-.124.329-.165.827-.123 1.493zm2.684-.17c.056.885-.051 1.565-.322 2.04-.268.47-.69.725-1.267.761-.554.036-.995-.17-1.325-.614-.326-.445-.516-1.1-.571-1.966-.056-.885.046-1.56.306-2.027.264-.467.68-.719 1.249-.755.554-.035.999.168 1.337.608.34.436.538 1.087.593 1.953zm-1.888-5.88-4.199 8.85-.86.054 4.199-8.85.86-.055z" fill="#000"/>
    </g>
    <defs>
        <linearGradient id="l3cxvwbvcb" x1="53.694" y1="75.836" x2="78.731" y2="74.246" gradientUnits="userSpaceOnUse">
            <stop stop-color="#903"/>
            <stop offset=".494" stop-color="#ED0033"/>
            <stop offset="1" stop-color="#FF5C5E"/>
        </linearGradient>
        <filter id="xixrcvlnva" x="0" y="0" width="275.148" height="148.977" filterUnits="userSpaceOnUse" color-interpolation-filters="sRGB">
            <feFlood flood-opacity="0" result="BackgroundImageFix"/>
            <feColorMatrix in="SourceAlpha" values="0 0 0 0 0 0 0 0 0 0 0 0 0 0 0 0 0 0 127 0" result="hardAlpha"/>
            <feOffset dy="4"/>
            <feGaussianBlur stdDeviation="16"/>
            <feComposite in2="hardAlpha" operator="out"/>
            <feColorMatrix values="0 0 0 0 0 0 0 0 0 0 0 0 0 0 0 0 0 0 0.24 0"/>
            <feBlend in2="BackgroundImageFix" result="effect1_dropShadow_17_5444"/>
            <feBlend in="SourceGraphic" in2="effect1_dropShadow_17_5444" result="shape"/>
        </filter>
    </defs>
</svg>
