<svg  viewBox="0 0 40 30" fill="none" xmlns="http://www.w3.org/2000/svg">
    <g clip-path="url(#0rjnaojvha)">
        <path d="M8.048 21.884a3.61 3.61 0 0 0 .563 2.611A25.812 25.812 0 0 1 4.29 25.6a3.737 3.737 0 0 1-2.997-.835 3.668 3.668 0 0 1-.958-1.261A3.632 3.632 0 0 1 0 21.959V4.028c0-.974.39-1.908 1.086-2.597A3.729 3.729 0 0 1 3.71.355h18.124c.613 0 1.216.15 1.757.437.54.287 1 .702 1.34 1.207a25.886 25.886 0 0 0-11.175 7.667 25.51 25.51 0 0 0-5.708 12.218z" fill="#FF5C5E"/>
        <path d="M25.498 4.61a25.518 25.518 0 0 1-5.71 12.217A25.896 25.896 0 0 1 8.61 24.495a3.61 3.61 0 0 1-.563-2.611 25.51 25.51 0 0 1 5.708-12.218A25.886 25.886 0 0 1 24.93 1.999a3.61 3.61 0 0 1 .567 2.611z" fill="#ED0033"/>
        <path d="M33.543 4.522v17.944a3.635 3.635 0 0 1-1.085 2.596 3.736 3.736 0 0 1-2.622 1.074H11.712c-.613 0-1.217-.15-1.758-.436a3.713 3.713 0 0 1-1.342-1.205 25.896 25.896 0 0 0 11.176-7.668 25.52 25.52 0 0 0 5.71-12.217A3.61 3.61 0 0 0 24.93 2c1.405-.487 2.85-.851 4.32-1.09a3.734 3.734 0 0 1 2.99.825c.407.344.735.77.96 1.252.225.482.342 1.006.342 1.536z" fill="#903"/>
        <path d="M44.252 22.018c1.807 0 3.316-.534 4.34-1.548 1.052-1.041 1.618-2.563 1.618-4.645V3.094h-3.936v12.545c0 1.921-.835 2.749-2.156 2.749-1.079 0-1.888-.588-2.67-1.468l-2.372 2.722c1.105 1.335 2.858 2.376 5.176 2.376zM59.656 22.098c3.91 0 6.794-3.07 6.794-7.314v-.293c0-4.27-2.858-7.287-6.767-7.287-3.909 0-6.82 3.07-6.82 7.314v.293c0 4.27 2.884 7.287 6.793 7.287zm.027-3.283c-1.833 0-3.046-1.789-3.046-4.084v-.187c0-2.322 1.105-4.057 3.02-4.057 1.832 0 3.019 1.762 3.019 4.084v.187c0 2.322-1.106 4.057-2.993 4.057zM76.725 22.044c2.885 0 5.5-2.322 5.5-7.206v-.427c0-4.885-2.642-7.207-5.5-7.207-1.914 0-3.073 1.041-3.909 2.242v-6.94h-3.828v19.271h3.828v-1.841c.81 1.067 1.968 2.108 3.91 2.108zm-1.132-3.31c-1.59 0-2.83-1.547-2.83-3.976v-.267c0-2.43 1.24-3.977 2.83-3.977s2.804 1.548 2.804 3.977v.267c0 2.429-1.213 3.977-2.804 3.977zM84.223 21.777h3.91v-7.393h7.252v-3.55h-7.253v-4.19h8.25v-3.55H84.223v18.683zM98.855 5.95h3.989V2.507h-3.99V5.95zm.08 15.827h3.829V7.471h-3.829v14.306zM110.409 22.018c1.16 0 2.076-.32 2.831-.748v-3.016c-.485.24-1.051.4-1.644.4-.809 0-1.187-.4-1.187-1.227v-6.753h2.858V7.471h-2.858V3.814h-3.828v3.657h-1.456v3.203h1.456v7.527c0 2.963 1.618 3.817 3.828 3.817z" fill="#fff"/>
    </g>
    <defs>
        <clipPath id="0rjnaojvha">
            <path fill="#fff" d="M0 0h114.255v30H0z"/>
        </clipPath>
    </defs>
</svg>
