<svg width="76" height="75" viewBox="0 0 76 75" fill="none" xmlns="http://www.w3.org/2000/svg">
    <path d="M14.273 32.53c-.352 0-.66-.021-.923-.062a4.928 4.928 0 0 1-.686-.132v-2.268c.188.041.39.08.607.115.21.04.436.061.676.061.317 0 .6-.061.853-.184.252-.118.451-.343.598-.677.146-.334.22-.815.22-1.442v-12.04h2.724v12.023c0 1.101-.173 1.99-.519 2.663-.34.68-.817 1.172-1.432 1.476-.61.311-1.316.466-2.118.466zm15.122-8.71c0 .82-.111 1.546-.334 2.179a4.294 4.294 0 0 1-.958 1.608c-.416.434-.92.762-1.512.985-.586.223-1.248.334-1.986.334a5.279 5.279 0 0 1-1.907-.334 4.24 4.24 0 0 1-1.503-.985A4.59 4.59 0 0 1 20.21 26c-.228-.633-.342-1.36-.342-2.18 0-1.09.193-2.012.58-2.768a3.98 3.98 0 0 1 1.652-1.723c.715-.392 1.567-.589 2.558-.589.92 0 1.734.197 2.443.59a4.14 4.14 0 0 1 1.679 1.722c.41.756.615 1.679.615 2.768zm-6.794 0c0 .644.07 1.186.21 1.625.142.44.361.77.66.994.299.222.689.334 1.169.334.475 0 .858-.112 1.151-.334.3-.223.516-.554.65-.994.141-.44.212-.981.212-1.626 0-.65-.07-1.19-.211-1.617-.135-.433-.352-.759-.65-.975-.3-.217-.69-.326-1.17-.326-.709 0-1.224.244-1.546.73-.317.486-.475 1.216-.475 2.188zm10.79-8.746v3.182c0 .369-.012.735-.036 1.099a9.258 9.258 0 0 1-.07.843h.105c.258-.404.61-.747 1.055-1.028.445-.287 1.023-.43 1.732-.43 1.101 0 1.995.43 2.68 1.291.686.862 1.029 2.124 1.029 3.788 0 1.12-.159 2.06-.475 2.822-.317.756-.759 1.327-1.327 1.714-.569.38-1.228.57-1.978.57-.72 0-1.289-.128-1.705-.386a3.922 3.922 0 0 1-1.01-.87h-.185l-.448 1.081H30.71V15.074h2.68zm1.924 5.81c-.468 0-.84.096-1.116.29-.275.193-.477.483-.606.87-.124.387-.19.876-.203 1.468v.29c0 .955.141 1.687.422 2.197.282.504.794.756 1.538.756.551 0 .988-.255 1.31-.765.328-.51.492-1.245.492-2.206 0-.96-.164-1.684-.492-2.17-.328-.487-.776-.73-1.345-.73zm8.777 7.866h-2.68V15.9h7.365v2.233h-4.685v3.313h4.36v2.224h-4.36v5.08zm8.768-9.826v9.826h-2.68v-9.826h2.68zm-1.336-3.85c.398 0 .741.094 1.028.281.288.182.431.525.431 1.029 0 .498-.143.843-.43 1.037-.288.187-.63.281-1.029.281-.404 0-.75-.094-1.037-.281-.281-.194-.422-.54-.422-1.037 0-.504.14-.847.422-1.029.287-.187.633-.28 1.037-.28zm7.397 11.716c.293 0 .577-.03.852-.088.282-.058.56-.132.835-.22v1.995a4.897 4.897 0 0 1-1.072.317 6.815 6.815 0 0 1-1.389.132 4.229 4.229 0 0 1-1.582-.281c-.462-.194-.829-.525-1.098-.994-.264-.474-.396-1.133-.396-1.977v-4.738h-1.283v-1.133l1.477-.897.773-2.074h1.714v2.092h2.75v2.012h-2.75v4.738c0 .375.105.656.316.844.217.181.501.272.853.272z" fill="#fff"/>
    <path d="M28.671 57.714c-.163.97.052 1.966.603 2.785a27.66 27.66 0 0 1-4.623 1.178 4.005 4.005 0 0 1-3.204-.891 3.912 3.912 0 0 1-1.025-1.345 3.866 3.866 0 0 1-.357-1.646V38.668c0-1.04.418-2.036 1.162-2.77a3.993 3.993 0 0 1 2.805-1.148h19.382c.655 0 1.3.16 1.878.466.578.306 1.07.748 1.434 1.288a27.685 27.685 0 0 0-11.951 8.178 27.18 27.18 0 0 0-6.104 13.032z" fill="#FF5C5E"/>
    <path d="M47.332 39.29a27.19 27.19 0 0 1-6.107 13.031A27.694 27.694 0 0 1 29.274 60.5a3.844 3.844 0 0 1-.603-2.786 27.18 27.18 0 0 1 6.104-13.032 27.684 27.684 0 0 1 11.95-8.178c.553.819.77 1.815.607 2.785z" fill="#ED0033"/>
    <path d="M55.935 39.195v19.14a3.87 3.87 0 0 1-.301 1.498c-.2.476-.491.907-.86 1.27a3.966 3.966 0 0 1-1.286.85 4.006 4.006 0 0 1-1.517.296H32.589c-.655 0-1.301-.159-1.88-.464a3.967 3.967 0 0 1-1.435-1.286 27.694 27.694 0 0 0 11.951-8.178 27.19 27.19 0 0 0 6.107-13.032 3.843 3.843 0 0 0-.606-2.786 27.661 27.661 0 0 1 4.619-1.161 4.001 4.001 0 0 1 3.197.879 3.91 3.91 0 0 1 1.027 1.336c.24.513.366 1.072.366 1.638z" fill="#903"/>
</svg>
