<svg width="344" height="330" viewBox="0 0 344 330" fill="none" xmlns="http://www.w3.org/2000/svg">
    <path d="M247.658 282.33a5.501 5.501 0 0 1 3.595 2.361 9.774 9.774 0 0 1 1.515 4.123c.43 2.819-.374 6.012-1.452 8.655-2.854-1.409-4.342-4.75-4.983-6.505-1.022-2.777-1.184-8.408 1.325-8.634zM255.228 301.226a4.694 4.694 0 0 1 .289-4.701 6.246 6.246 0 0 1 4.059-2.594 2.619 2.619 0 0 1 2.185.346 1.983 1.983 0 0 1 .564 1.952 4.036 4.036 0 0 1-1.064 1.825c-1.656 1.798-3.588 3.235-6.033 3.172z" fill="#EBEBEB"/>
    <path d="M254.558 310.43a2.878 2.878 0 0 1-.07-.585c-.036-.416-.085-.951-.141-1.6a16.67 16.67 0 0 1 .253-5.286 10.037 10.037 0 0 1 2.474-4.651 6.66 6.66 0 0 1 1.255-1.015c.122-.081.249-.154.38-.219.085-.042.134-.063.141-.056a9.297 9.297 0 0 0-4.052 5.991 17.79 17.79 0 0 0-.303 5.229c.035.705.063 1.22.07 1.6.014.197.012.395-.007.592zM248.159 286.559c.039.076.07.157.091.24l.24.705c.197.606.472 1.48.81 2.572a270.826 270.826 0 0 1 2.446 8.542 184.982 184.982 0 0 1 2.114 8.634c.254 1.106.452 2.009.585 2.629.057.296.106.535.141.705.02.083.032.168.036.253a2.129 2.129 0 0 1-.078-.246c-.042-.184-.106-.416-.176-.705a513.52 513.52 0 0 1-.648-2.615 416.939 416.939 0 0 0-2.206-8.606c-.903-3.354-1.755-6.343-2.383-8.556l-.747-2.593a34.021 34.021 0 0 1-.197-.705 1.283 1.283 0 0 1-.028-.254z" fill="#E0E0E0"/>
    <path d="M251.69 303.982a10.984 10.984 0 0 0-7.894-6.188c-.867-.163-1.938-.127-2.417.62-.48.747-.057 1.734.472 2.452a9.376 9.376 0 0 0 9.867 3.355" fill="#EBEBEB"/>
    <path d="M244.881 300.289c.184.009.366.037.543.084.214.034.426.081.634.141.24.071.529.134.825.247.296.113.634.225.973.387a12.031 12.031 0 0 1 3.263 2.199 11.625 11.625 0 0 1 1.734 2.115c.213.338.406.688.577 1.05.157.31.294.631.409.958.105.27.194.545.268.825.066.205.115.415.148.627.048.18.076.364.085.55-.043 0-.17-.775-.635-1.945a7.708 7.708 0 0 0-.43-.938 9.59 9.59 0 0 0-.585-1.029 12.3 12.3 0 0 0-1.712-2.114 13.237 13.237 0 0 0-2.15-1.635c-.366-.204-.705-.402-1.05-.557-.345-.155-.655-.282-.944-.402-1.184-.394-1.967-.521-1.953-.563zM296.578 256.528a64.543 64.543 0 0 1-4.652-5.018 66.22 66.22 0 0 1-4.376-5.258 128.4 128.4 0 0 1 9.028 10.276zM299.418 256.471a52.28 52.28 0 0 1-2.769-5.638 53.931 53.931 0 0 1-2.432-5.814 53.567 53.567 0 0 1 2.763 5.638 54.585 54.585 0 0 1 2.438 5.814zM303.189 245.54c.113 0-.62 2.34-.965 5.293-.346 2.953-.205 5.364-.318 5.371a5.539 5.539 0 0 1-.197-1.579 22.932 22.932 0 0 1 .148-3.841c.153-1.271.41-2.528.768-3.757a5.66 5.66 0 0 1 .564-1.487zM175.191 318.472a9.634 9.634 0 0 1-1.367-1.304 706.474 706.474 0 0 1-3.165-3.256l-3.171-3.256a10.884 10.884 0 0 1-1.262-1.409 9.147 9.147 0 0 1 1.445 1.219c.853.789 2.009 1.91 3.249 3.186a93.34 93.34 0 0 1 3.094 3.333c.44.456.834.955 1.177 1.487zM179.899 318.705a64.572 64.572 0 0 1-3.763-5.639 62.839 62.839 0 0 1-3.461-5.836 64.884 64.884 0 0 1 3.771 5.639 62.197 62.197 0 0 1 3.453 5.836zM185.023 306.793a13.762 13.762 0 0 1-.493 1.805 32.73 32.73 0 0 0-1.269 8.852c.033.623.021 1.247-.035 1.868a7.446 7.446 0 0 1-.226-1.868c-.13-3.03.305-6.059 1.283-8.93a7.11 7.11 0 0 1 .74-1.727zM302.059 87.68c13.055-5.272 19.364-20.129 14.092-33.184-5.272-13.054-20.128-19.364-33.183-14.092s-19.364 20.129-14.092 33.184c5.271 13.054 20.128 19.364 33.183 14.092z" fill="#E0E0E0"/>
    <path d="M302.063 84.868c13.055-5.272 19.365-20.129 14.093-33.183-5.272-13.055-20.129-19.365-33.184-14.093-13.054 5.272-19.364 20.129-14.092 33.183 5.272 13.055 20.129 19.365 33.183 14.093z" fill="#EBEBEB"/>
    <path d="M292.518 78.327c9.432 0 17.078-7.645 17.078-17.077 0-9.431-7.646-17.077-17.078-17.077-9.431 0-17.077 7.646-17.077 17.077 0 9.431 7.646 17.077 17.077 17.077z" fill="#fff"/>
    <path d="M298.737 66.818a8.359 8.359 0 1 0-12.447-11.161 8.359 8.359 0 0 0 12.447 11.16zM313.021 39.662l-.698-5.44 5.54-5.928.395 5.87-5.237 5.498zM324.904 35.335l-5.617-.459-5.632 5.413 5.632.606 5.617-5.56z" fill="#EBEBEB"/>
    <path d="m318.765 32.713-8.937 9.056-14.187 14.378c-1.093 1.1-2.178 2.206-3.264 3.306-1.085 1.1.578 2.664 1.614 1.614l8.944-9.064 14.188-14.37a534.092 534.092 0 0 1 3.263-3.306c1.029-1.05-.585-2.664-1.621-1.614z" fill="#E0E0E0"/>
    <path d="M224.999 37.766c.423-3.094-3.947-5.638-7.231-5.913-1.572-.12-3.2.12-4.68-.402-3.221-1.12-4.504-5.271-7.64-6.596-2.347-.994-5.046-.113-7.323 1.036-2.276 1.148-4.525 2.586-7.048 2.748-2.213.141-4.616-.704-6.547.402-1.41.803-2.199 2.46-3.524 3.44-1.325.98-2.996 1.162-4.61 1.254-1.614.092-3.277.099-4.75.775-1.473.677-2.678 2.22-2.375 3.806l55.728-.55zM69.183 54.681c.402-2.924-3.714-5.32-6.816-5.575-1.473-.12-3.009.106-4.404-.38-3.031-1.057-4.23-4.934-7.203-6.216-2.206-.93-4.75-.106-6.893.972s-4.23 2.439-6.66 2.594c-2.115.134-4.342-.642-6.168.373-1.353.762-2.065 2.326-3.32 3.25-1.254.923-2.819 1.092-4.34 1.177-1.523.084-3.088.098-4.476.704-1.389.606-2.523 2.115-2.241 3.588l52.52-.487z" fill="#EBEBEB"/>
    <path d="M128.675 17.757c.317-2.298-2.925-4.18-5.357-4.377-1.163-.099-2.368.085-3.467-.303-2.383-.832-3.334-3.905-5.639-4.884-1.734-.705-3.735-.085-5.42.768-1.684.853-3.347 1.91-5.229 2.03-1.642.106-3.419-.5-4.85.303-1.07.592-1.627 1.825-2.614 2.551a6.231 6.231 0 0 1-3.411.924 9.668 9.668 0 0 0-3.524.57c-1.086.5-1.988 1.65-1.762 2.82l41.273-.402zM75.026 102.1c.317-2.29-2.925-4.18-5.357-4.377-1.163-.092-2.368.085-3.468-.296-2.382-.832-3.333-3.912-5.638-4.891-1.734-.705-3.735-.078-5.42.768-1.684.846-3.355 1.917-5.236 2.037-1.635.106-3.411-.508-4.842.296-1.072.592-1.628 1.825-2.615 2.551a6.175 6.175 0 0 1-3.432.895 9.528 9.528 0 0 0-3.524.578c-1.086.494-1.988 1.649-1.762 2.819l41.294-.38zM282.496 9.87c.317-2.297-2.925-4.186-5.356-4.376-1.163-.1-2.368.077-3.468-.303-2.382-.832-3.334-3.905-5.638-4.885-1.734-.704-3.736-.084-5.42.761-1.685.846-3.348 1.918-5.23 2.037-1.642.106-3.418-.5-4.849.296-1.071.6-1.628 1.826-2.614 2.552a6.239 6.239 0 0 1-3.461.93 9.67 9.67 0 0 0-3.524.57c-1.085.501-1.988 1.65-1.762 2.82l41.322-.402zM240.822 76.7c.317-2.298-2.925-4.18-5.357-4.377-1.163-.092-2.368.084-3.467-.304-2.383-.824-3.334-3.904-5.639-4.884-1.741-.705-3.742-.084-5.427.768-1.684.853-3.348 1.91-5.229 2.03-1.643.106-3.419-.5-4.849.303-1.065.592-1.628 1.826-2.608 2.552a6.266 6.266 0 0 1-3.411.923 9.71 9.71 0 0 0-3.524.57c-1.086.501-1.988 1.65-1.762 2.82l41.273-.402z" fill="#F5F5F5"/>
    <path d="m87.353 138.503 32.385-33.478 9.078 3.073 31.751 53.282 18.782 9.607 16.07 46.721-49.322-2.552-58.745-76.653z" fill="#E0E0E0"/>
    <path d="M342.939 198.995c.036.092-76.463 29.355-170.842 65.342C77.717 300.324 1.142 329.439 1.099 329.34c-.042-.098 76.45-29.347 170.864-65.334s170.941-65.109 170.976-65.011z" fill="#263238"/>
    <path d="M279.416 28.033c-1.525.33-3.084.479-4.644.444a9.121 9.121 0 0 1-6.139-2.432c-1.818-1.804-2.756-4.567-4.75-6.132-1.784-1.409-4.546-1.339-6.47-.176v12.687c.972-.761 2.776-2.305 5.532-.952 1.086.536 2.065 1.12 3.115 1.748 2.946 1.77 5.977 1.628 9.078.24a14.251 14.251 0 0 0 4.722-3.764c.902-.987.191-1.797-.444-1.663z" fill="#FF725E"/>
    <path d="M257.413 17.235c.098 0 .183 6.343.183 14.131s-.085 14.096-.183 14.096c-.099 0-.184-6.343-.184-14.096 0-7.752.078-14.13.184-14.13z" fill="#263238"/>
    <path d="m331.494 124.033-17.733-7.76-48.504-69.676-13.018-4.708-52.887 58.04-14.688 8.035-55.179 57.398-14.244 13.117 76.097 78.049 152.186-57.991V149.06l-12.03-25.027z" fill="#EBEBEB"/>
    <path d="m265.257 46.597-13.018-4.708-27.17 29.813 28.101-22.828 7.886 11.199c.282-.092 3.299-4.828 3.299-4.828s14.096 10.346 13.926 10.065c-.169-.282-13.024-18.713-13.024-18.713z" fill="#fff"/>
    <path d="m129.732 165.827 62.712-48.821 25.521-5.899 19.375-52.874-37.989 41.696-14.688 8.035-54.931 57.863zM313.761 116.273l13.701 12.532 16.062 20.256-12.031-25.028-17.732-7.76z" fill="#E0E0E0"/>
    <path d="m129.732 165.827.246-.274.747-.804 2.932-3.122 11.143-11.798 39.751-41.971 14.688-8.07h-.043l42.344-46.516c3.553-3.905 7.065-7.76 10.537-11.566l.078-.092.119.043 13.018 4.715h.049l.036.042 48.461 69.711-.056-.042 17.719 7.753h.035v.035l8.182 17.112c.931 1.974 1.65 3.489 2.115 4.518.232.508.416.895.543 1.156l.176.402s-.078-.127-.205-.388l-.563-1.149-2.192-4.496-8.261-17.07.05.049-17.74-7.753h-.035c-12.687-18.247-29.602-42.421-48.547-69.64l.085.063-13.018-4.708.198-.05-10.488 11.658-42.365 46.467-14.73 8.063.042-.036-39.814 41.879-11.206 11.742-2.967 3.087-.761.79-.303.26z" fill="#263238"/>
    <path d="M94.062 111.1a24.96 24.96 0 0 1-5.73.557 11.277 11.277 0 0 1-7.555-3.003c-2.242-2.22-3.39-5.638-5.85-7.548-2.2-1.734-5.596-1.642-7.971-.219v15.654c1.205-.945 3.425-2.819 6.815-1.17 1.34.655 2.551 1.374 3.841 2.114 3.623 2.178 7.358 2.002 11.171.296 1.41-.634 3.39-1.903 5.822-4.637 1.106-1.213.24-2.192-.543-2.044z" fill="#FF725E"/>
    <path d="M66.956 97.808c.105 0 .19 7.788.19 17.401s-.085 17.394-.19 17.394c-.106 0-.184-7.788-.184-17.394 0-9.606.085-17.401.183-17.401z" fill="#263238"/>
    <path d="m143.398 197.698-14.681-8.626-52.895-62.29-13.018 5.053-36.12 78.38-17.726 8.324L0 245.716l1.29 82.99 49.624-18.551 141.213-53.931-48.729-58.526z" fill="#EBEBEB"/>
    <path d="m26.684 210.215 7.047-4.235 7.161-14.181 5.73 4.328 17.543-58.95 12.312-9.719-.655-.676-13.018 5.053-36.12 78.38z" fill="#E0E0E0"/>
    <path d="m62.804 131.835 13.018-5.053 27.17 31.997s-22.392-19.776-22.68-19.776c0 0-2.207 7.414-2.489 7.316-.281-.099-13.39-13.18-13.39-13.18l-5.322 6.745 3.693-8.049z" fill="#fff"/>
    <path d="M192.127 256.253s-.317-.353-.909-1.05l-2.615-3.109c-2.29-2.727-5.638-6.73-9.909-11.833l-35.416-42.464.042.035-14.688-8.612c-13.349-15.703-28.431-33.464-44.346-52.198l-8.598-10.127.204.056-13.024 5.053.098-.098c-14.032 30.419-26.535 57.574-36.163 78.366v.042h-.042l-17.76 8.324.056-.064-6.647 20.017c-.775 2.311-1.374 4.094-1.776 5.307l-.465 1.36c-.106.31-.169.458-.169.458s.042-.155.141-.465c.099-.31.247-.768.437-1.375l1.727-5.321c1.522-4.658 3.742-11.453 6.554-20.044v-.042h.036l17.718-8.352-.056.063 36.085-78.422v-.064h.07l13.018-5.06.17-.064.084.099 8.563 10.079 44.311 52.225h-.043l14.681 8.634 35.318 42.52 9.853 11.897 2.579 3.129.881 1.1z" fill="#263238"/>
    <path d="m57.885 275.191 5.025-21.532 22.596-34.182 17.859-4.37 23.928 26.514 21.306 5.385 32.646 13.624-135.983 51.873 2.375-18.05 10.248-19.262z" fill="#F5F5F5"/>
    <path d="M57.885 275.184s-.218.437-.655 1.282l-1.96 3.75-7.562 14.279a13776.46 13776.46 0 0 1-2.347 18.05l-.155-.12 130.796-49.97 5.159-1.966v.338l-32.646-13.624-21.299-5.398h-.05v-.043l-23.913-26.521.148.042-17.86 4.32.085-.056-22.638 34.162-3.778 16.005c-.437 1.805-.761 3.179-.987 4.109-.225.931-.345 1.41-.345 1.41s.091-.472.303-1.41c.211-.937.529-2.311.937-4.13.846-3.636 2.115-9.021 3.7-16.013l22.554-34.21v-.043h.056l17.853-4.384h.084l.064.064 23.963 26.5-.042-.155 21.306 5.385 32.66 13.645.423.176-.43.169-5.166 1.966-130.839 49.843-.183.071v-.19c.91-6.851 1.72-12.926 2.403-18.043v-.035l7.626-14.258a568.86 568.86 0 0 0 2.002-3.708c.451-.845.733-1.289.733-1.289zM289.058 205.19c.563.453 1.083.958 1.55 1.509a44.699 44.699 0 0 1 3.313 4.031 45.91 45.91 0 0 1 2.819 4.377c.39.61.714 1.259.966 1.938a15.915 15.915 0 0 1-1.184-1.804 75.491 75.491 0 0 0-2.925-4.292 79.064 79.064 0 0 0-3.207-4.081 15.593 15.593 0 0 1-1.332-1.678zM295.373 198.826c.279.835.515 1.685.704 2.544a110.048 110.048 0 0 0 1.805 6.111c.775 2.368 1.55 4.483 2.114 6.005.347.813.646 1.647.895 2.495a2.398 2.398 0 0 1-.345-.627 49.603 49.603 0 0 1-.79-1.769 79.25 79.25 0 0 1-2.241-5.991 65.516 65.516 0 0 1-1.705-6.16 34.546 34.546 0 0 1-.381-1.903 2.491 2.491 0 0 1-.056-.705zM306.015 202.907c.05 0-.296.592-.655 1.586a13.595 13.595 0 0 0-.768 4.017c0 1.614-.113 3.101-.05 4.144.07.571.106 1.145.106 1.72a5.79 5.79 0 0 1-.367-1.699 35.748 35.748 0 0 1-.056-4.179c.05-1.41.353-2.8.895-4.102a4.236 4.236 0 0 1 .895-1.487z" fill="#263238"/>
    <path d="M106.325 290.478a26.832 26.832 0 0 0-3.488-3.277 27.197 27.197 0 0 0-4.23-2.284c.488.032.965.152 1.411.352 1.081.406 2.103.956 3.037 1.635a12.66 12.66 0 0 1 2.502 2.369c.323.355.583.762.768 1.205zM106.333 275.804c.063 0-.064.782-.085 2.037a17.084 17.084 0 0 0 .641 4.827 16.719 16.719 0 0 0 2.023 4.434c.705 1.05 1.198 1.642 1.149 1.684a1.959 1.959 0 0 1-.409-.373 10.152 10.152 0 0 1-.958-1.163 14.804 14.804 0 0 1-2.707-9.424 11.4 11.4 0 0 1 .198-1.494c.019-.183.069-.362.148-.528zM113.613 279.511a9.36 9.36 0 0 1-.395 1.128 8.342 8.342 0 0 0-.394 2.819c.031.945.227 1.878.577 2.756.183.354.339.721.466 1.099-.036 0-.36-.317-.705-.993a6.857 6.857 0 0 1-.705-2.82 6.942 6.942 0 0 1 .522-2.896c.12-.41.337-.785.634-1.093z" fill="#263238"/>
    <path d="M40.956 280.075a6.044 6.044 0 0 1 2.407.269c.776.25 1.494.655 2.11 1.19a10.688 10.688 0 0 1 2.82 3.94c1.29 2.868 1.367 6.491.993 9.62-3.44-.641-6.005-3.778-7.203-5.455-1.896-2.65-3.714-8.592-1.12-9.564M54.544 297.977a5.162 5.162 0 0 1-1.064-5.075 6.82 6.82 0 0 1 3.524-3.94 2.862 2.862 0 0 1 2.417-.274 2.184 2.184 0 0 1 1.17 1.91 4.476 4.476 0 0 1-.592 2.255c-1.233 2.389-2.868 4.482-5.483 5.131" fill="#FF725E"/>
    <path d="M56.517 307.95a4.078 4.078 0 0 1-.246-.599l-.606-1.657a17.973 17.973 0 0 1-1.283-5.687 11.094 11.094 0 0 1 1.269-5.674c.291-.507.639-.98 1.036-1.41.134-.155.26-.26.338-.338.077-.077.127-.113.134-.106-.52.609-.979 1.267-1.367 1.967a11.494 11.494 0 0 0-1.185 5.589 19.56 19.56 0 0 0 1.206 5.638c.24.705.422 1.283.542 1.685.072.192.126.39.162.592z" fill="#263238"/>
    <path d="M42.774 284.445c.061.071.118.147.17.225.112.177.267.395.45.67.388.585.938 1.41 1.614 2.495a262.648 262.648 0 0 1 5.096 8.366 291.78 291.78 0 0 1 4.806 8.542c.6 1.099 1.072 2.002 1.41 2.622l.36.705c.047.082.085.169.112.26a1.194 1.194 0 0 1-.148-.232l-.401-.705c-.36-.634-.846-1.515-1.452-2.587a480.247 480.247 0 0 0-4.856-8.507c-1.931-3.305-3.785-6.216-5.096-8.33l-1.55-2.53c-.17-.282-.304-.515-.416-.705a1.094 1.094 0 0 1-.1-.289z" fill="#263238"/>
    <path d="M51.591 301.938a12.077 12.077 0 0 0-10.227-4.264c-.972.084-2.114.429-2.389 1.367-.275.937.451 1.86 1.22 2.467a10.35 10.35 0 0 0 11.445.704" fill="#FF725E"/>
    <path d="M43.274 300.007c.197-.045.398-.068.6-.071.233-.027.469-.039.704-.035.315-.016.63-.016.945 0 .385.021.768.063 1.148.127.438.064.87.153 1.297.268.98.259 1.925.631 2.82 1.106.888.489 1.716 1.08 2.466 1.762a13.192 13.192 0 0 1 1.643 1.847c.218.282.366.564.521.796.128.202.243.412.345.628.102.176.185.362.247.556-.042 0-.409-.768-1.247-1.881-.22-.304-.455-.596-.705-.874-.29-.323-.599-.629-.923-.917a13.276 13.276 0 0 0-2.432-1.712 13.688 13.688 0 0 0-2.763-1.114 14.143 14.143 0 0 0-1.276-.282c-.37-.07-.744-.12-1.12-.148-1.403-.113-2.27-.007-2.27-.056z" fill="#263238"/>
    <path d="M333.728 100.232c-4 .867-8.087 1.264-12.179 1.184-5.808-.239-11.742-2.114-16.069-6.378-4.772-4.722-7.225-11.982-12.447-16.07-4.68-3.678-11.911-3.523-16.95-.465v33.267c2.551-1.995 7.28-6.033 14.483-2.481 2.854 1.41 5.427 2.925 8.176 4.574 7.703 4.631 15.646 4.229 23.765.627 3.031-1.346 7.203-4.038 12.377-9.867 2.354-2.615.507-4.708-1.156-4.391z" fill="#FF725E"/>
    <path d="M276.519 224.185V78.102c0-1.96.043-3.926 0-5.892v-.247a.442.442 0 0 0-.881 0v152.222a.448.448 0 0 0 .441.388.445.445 0 0 0 .44-.388z" fill="#263238"/>
    <path d="m143.151 76.826-.797-4.997a19.301 19.301 0 0 0-4.895-25.58 19.306 19.306 0 1 0 .279 30.725l5.413-.148z" fill="#fff"/>
    <path d="M143.151 76.826h-.338l-1.029.05-4.053.161a.069.069 0 0 1-.054-.018.053.053 0 0 1-.017-.023.07.07 0 0 1-.006-.03.083.083 0 0 1 0-.048l.105.098a19.096 19.096 0 0 1-8.5 3.82c-2.035.355-4.113.391-6.159.106a19.465 19.465 0 0 1-6.633-2.241 19.884 19.884 0 0 1-5.863-5.047 19.12 19.12 0 0 1-3.63-7.54 19.876 19.876 0 0 1 0-8.903 19.033 19.033 0 0 1 4.299-8.274 20.004 20.004 0 0 1 3.573-3.207c.67-.422 1.339-.852 2.03-1.219l1.064-.5.529-.247.55-.197a19.788 19.788 0 0 1 8.915-1.135 19.032 19.032 0 0 1 7.993 2.742 19.818 19.818 0 0 1 5.723 5.3 19.518 19.518 0 0 1 2.995 6.343c.113.542.226 1.078.331 1.607.106.528.127 1.05.191 1.564.098.993.112 1.993.042 2.989a19.198 19.198 0 0 1-2.819 8.838v-.05c.239 1.614.423 2.869.55 3.736.056.409.105.705.133.959.029.253.043.317.043.317s0-.12-.071-.339c-.07-.218-.098-.556-.169-.972-.148-.853-.359-2.115-.634-3.68a.137.137 0 0 1 0-.049 19.228 19.228 0 0 0 2.741-8.774c.063-.985.042-1.973-.063-2.953-.063-.5-.092-1.022-.197-1.544a81.009 81.009 0 0 0-.339-1.579 19.11 19.11 0 0 0-8.577-11.417 18.575 18.575 0 0 0-7.851-2.672 19.37 19.37 0 0 0-8.754 1.121l-.536.19-.521.247-1.043.493c-.705.36-1.332.783-1.995 1.199a19.963 19.963 0 0 0-3.524 3.143 18.72 18.72 0 0 0-4.229 8.12 19.547 19.547 0 0 0-.042 8.732 18.755 18.755 0 0 0 3.524 7.421 19.589 19.589 0 0 0 5.751 4.983 19.34 19.34 0 0 0 6.527 2.241c2.018.293 4.07.269 6.082-.07a19.31 19.31 0 0 0 8.458-3.7.076.076 0 0 1 .105 0 .07.07 0 0 1 0 .091l-.056-.12 4.003-.077h1.05l.395.014z" fill="#263238"/>
    <path d="M136.512 43.405h-21.144c-.071.183-1.48 19.833 10.572 20.206 12.066-.38 10.656-20.03 10.572-20.206z" fill="#FF725E"/>
    <path d="M137.858 41.474h-23.829c-.53 0-.959.429-.959.958v.564c0 .53.429.959.959.959h23.829c.529 0 .958-.43.958-.959v-.564a.958.958 0 0 0-.958-.958zM119.336 60.228c-3.813-1-6.386-3.778-7.429-8.042a18.754 18.754 0 0 1-.423-6.075l.078-.606h5.42v1.41h-4.166a17.77 17.77 0 0 0 .452 5.004c.93 3.763 3.094 6.117 6.42 6.991l-.352 1.318zM132.523 60.228l-.353-1.339c3.348-.874 5.512-3.242 6.435-7.048.378-1.616.527-3.276.444-4.934h-4.165V45.52h5.42l.077.606a18.59 18.59 0 0 1-.43 6.075c-1.036 4.25-3.608 7.027-7.428 8.028zM128.054 64.767a20.539 20.539 0 0 1-.704-4.228h-2.82a20.606 20.606 0 0 1-.704 4.228c-1.572 6.344-7.203 6.703-7.203 6.703v1.797h18.606V71.47s-5.603-.345-7.175-6.703z" fill="#FF725E"/>
    <path d="M137.217 43.87c0 .098-5.004.183-11.164.183s-11.164-.085-11.164-.183c0-.099 4.997-.183 11.164-.183s11.164.084 11.164.183zM134.397 57.5c-.072.28-.173.552-.303.811-.347.712-.775 1.38-1.275 1.995a9.038 9.038 0 0 1-2.742 2.213 8.869 8.869 0 0 1-4.194.965 8.64 8.64 0 0 1-4.172-1.05 8.972 8.972 0 0 1-2.65-2.312 12.46 12.46 0 0 1-1.283-1.987 3.348 3.348 0 0 1-.345-.79c.063-.042.578 1.093 1.825 2.615a9.39 9.39 0 0 0 2.615 2.178 8.535 8.535 0 0 0 4.01 1.015 8.807 8.807 0 0 0 4.039-.902 9.157 9.157 0 0 0 2.692-2.115 17.287 17.287 0 0 0 1.783-2.636z" fill="#263238"/>
    <path opacity=".3" d="m126.511 49.043.705 1.487a.613.613 0 0 0 .472.339l1.642.24a.62.62 0 0 1 .345 1.056l-1.163 1.107a.604.604 0 0 0-.176.55l.282 1.635a.631.631 0 0 1-.574.725.627.627 0 0 1-.335-.07l-1.466-.775a.644.644 0 0 0-.578 0l-1.466.775a.627.627 0 0 1-.909-.655l.282-1.635a.611.611 0 0 0-.176-.55l-1.191-1.163a.614.614 0 0 1-.156-.636.624.624 0 0 1 .501-.421l1.642-.24a.62.62 0 0 0 .472-.338l.705-1.487a.62.62 0 0 1 1.142.056z" fill="#000"/>
    <path d="M134.898 71.547c0 .099-4.123.183-9.205.183-5.081 0-9.204-.084-9.204-.183 0-.099 4.116-.183 9.204-.183 5.089 0 9.205.077 9.205.183z" fill="#263238"/>
    <path d="M223.124 136.614c.226 0 2.819-.261 3.355-.994a1.817 1.817 0 0 0 .056-1.692 2.944 2.944 0 0 0 1.022-1.642 3.136 3.136 0 0 0-.571-1.875l.254-.838a1.711 1.711 0 0 0-.225-1.776 3.165 3.165 0 0 1-1.163-1.523c-.254-.916-3.115-1.297-4.504-1.571-1.388-.275-3.249-.67-4.673 1.057-1.91 2.319-5.138 5.976-5.138 5.976l2.721 7.429s1.219.705 3.933.049a13.893 13.893 0 0 0 4.933-2.6z" fill="#FFBF9D"/>
    <path d="m221.531 135.162 18.861 102.773.775-.261-17.571-104.246-2.065 1.734z" fill="#455A64"/>
    <path d="M220.206 131.165s-1.367-3.946-2.939-5.49c-1.571-1.543-2.981-2.227-1.275-3.376 1.705-1.149 5.997-2.819 6.477-1.522.479 1.297-.12.705-.303 1.755-.184 1.05 1.79 5.603 2.361 7.471.571 1.867 2.734 7.752 1.952 8.232-.557.331-3.327.634-4.842.782a.964.964 0 0 1-1.057-.909l-.374-6.943z" fill="#263238"/>
    <path d="M229.749 131.863a9.252 9.252 0 0 0-5.553-6.942c-3.524-1.409-3.045-.853-3.045-.853l-.395 1.488c4.532-.198 6.343 3.58 6.893 4.383.705 1.008 1.198 3.426.268 3.975-.931.55-3.003-.535-3.003-.535l-1.177.874s3.257 1.853 4.73 1.846c1.473-.007 1.783-1.543 1.282-4.236z" fill="#263238"/>
    <path d="M232.815 182.722a1.647 1.647 0 0 1-1.915 1.682 1.654 1.654 0 0 1-1.278-2.205 1.654 1.654 0 0 1 1.487-1.07 1.65 1.65 0 0 1 1.181.445c.32.298.509.711.525 1.148zM238.51 215.509a1.408 1.408 0 0 1-1.66 1.385 1.407 1.407 0 0 1-1.123-1.07 1.41 1.41 0 1 1 2.783-.315z" fill="#455A64"/>
    <path d="M226.225 130.56c-.922.33-1.88.55-2.854.655-.451.049-.902.071-1.353.162a2.75 2.75 0 0 0-1.241.529 1.576 1.576 0 0 0-.62 1.163 1.108 1.108 0 0 0 .705 1.064 1.032 1.032 0 0 0-.508 1.205 1.596 1.596 0 0 0 .966.987c.451.163.929.242 1.409.232a9.495 9.495 0 0 0 2.115-.162 2.824 2.824 0 0 0 1.607-.824 1.307 1.307 0 0 0 .056-1.671c.383-.31.634-.753.705-1.24M220.418 131.025a1.352 1.352 0 0 1-.811-1.318c.078-.635.705-1.05 1.304-1.283a13.386 13.386 0 0 1 4.504-.641l.74.444c.163.298.281.619.352.951a1.15 1.15 0 0 1-.232.952c-.242.218-.54.365-.86.422-.941.322-1.915.537-2.904.642a5.088 5.088 0 0 1-2.093-.169z" fill="#FFBF9D"/>
    <path d="M226.535 133.928a7.807 7.807 0 0 0-1.543-.063c-.952 0-2.27 0-3.722.063H220.566a.402.402 0 0 0-.184.106.718.718 0 0 0-.169.296 2.36 2.36 0 0 0 .057 1.057c.078.325.274.609.549.797.227.156.48.268.747.331.373.098.757.14 1.142.127.275 0 .423-.035.416-.057-.007-.021-.599 0-1.487-.289a1.4 1.4 0 0 1-1.071-.979 1.936 1.936 0 0 1-.043-.895.268.268 0 0 1 .078-.155c.049-.036 0 0 .141 0h.543a131.3 131.3 0 0 0 3.714-.162 7.215 7.215 0 0 0 1.536-.177z" fill="#FF9A6C"/>
    <path d="M226.986 130.412a5.417 5.417 0 0 0-1.289.119c-.79.113-1.889.296-3.101.508h-.099a3.527 3.527 0 0 0-1.769.507 1.518 1.518 0 0 0-.705 1.34c.024.345.143.677.345.958.141.19.247.275.261.261.014-.014-.049-.127-.148-.324a1.953 1.953 0 0 1-.225-.895 1.291 1.291 0 0 1 .634-1.093 3.383 3.383 0 0 1 1.614-.43h.155a96.805 96.805 0 0 0 3.08-.606 5.248 5.248 0 0 0 1.247-.345z" fill="#FF9A6C"/>
    <path d="M227.015 127.797c-.625.178-1.231.414-1.812.705h.05-5.04l-.042.049c-.239.268-.43.576-.564.909a1.526 1.526 0 0 0-.049 1.015 1.127 1.127 0 0 0 .627.705c.225.092.463.149.705.169.35.03.703.015 1.05-.042.24-.043.374-.085.367-.106-.007-.021-.543.049-1.41-.063-.402-.057-.98-.198-1.121-.705a1.824 1.824 0 0 1 .578-1.607l-.112.049h.993c1.537 0 2.932-.042 3.975-.084h.106a10.735 10.735 0 0 0 1.699-.994z" fill="#FF9A6C"/>
    <path d="M213.68 131.37s3.482-5.209 3.651-5.293c.169-.085 5.744-.804 7.048-.24a47.078 47.078 0 0 1 2.819 1.367s.19 1.41-2.03 1.537c-2.22.127-4.525.049-4.525.049l-1.212 1.776s.493 4.751-3.714 6.09" fill="#FFBF9D"/>
    <path d="M215.696 136.656c.179-.046.355-.103.528-.169.212-.073.415-.167.606-.282.258-.135.504-.293.733-.472a5.174 5.174 0 0 0 1.41-1.988 7.175 7.175 0 0 0 .507-3.157v.084l1.227-1.769-.113.064h3.397a12.92 12.92 0 0 0 1.833-.127c.325-.065.633-.199.902-.395.285-.209.482-.519.549-.867a1.2 1.2 0 0 0 0-.359v-.078h-.077l-1.544-.747-.754-.366a5.174 5.174 0 0 0-.768-.332 6.846 6.846 0 0 0-1.628-.14c-.529 0-1.036 0-1.536.049-1.001.07-1.939.169-2.82.282l-.655.098h-.261l-.092.085c-.077.099-.133.169-.197.261l-.669.972c-.846 1.241-1.509 2.263-1.967 2.968l-.514.817a1.667 1.667 0 0 0-.162.296c.079-.079.149-.167.211-.261l.564-.789 2.037-2.911.705-.958.183-.233v-.056c.035.07.035.049.035.049h.19l.642-.092c.874-.105 1.818-.19 2.819-.246.5 0 1.008-.05 1.522-.05a7.023 7.023 0 0 1 1.544.141c.242.092.478.2.705.325l.747.366 1.529.74-.078-.113a.878.878 0 0 1 0 .261 1.406 1.406 0 0 1-1.226 1.022c-.588.085-1.182.128-1.776.127h-3.453l-.043.056c-.416.621-.824 1.213-1.205 1.783V130.63a7.106 7.106 0 0 1-.451 3.052 5.15 5.15 0 0 1-1.339 1.952c-.557.41-1.16.753-1.797 1.022z" fill="#FF9A6C"/>
    <path d="m211.967 130.299-20.594 3.08-5.688-19.615-6.885 29.348 4.228 2.875a10.742 10.742 0 0 0 9.022 1.41l23.42-6.343-3.503-10.755z" fill="#FF725E"/>
    <path d="m178.095 102.537 1.973.091 1.114.458a45.76 45.76 0 0 1 5.793 20.2l.331 7.597-.112 47.856-16.211-2.241-2.051-13.899 9.163-60.062z" fill="#FF725E"/>
    <path opacity=".3" d="M186.707 175.328s0-15.95.12-22.004c.12-6.054-1.734-27.966-1.734-27.966s-6.815 44.635-6.575 44.705c.239.071 8.189 5.265 8.189 5.265z" fill="#000"/>
    <path d="M184.628 113.081c.051.108.091.221.12.338.07.268.162.592.268.987a40.8 40.8 0 0 1 .705 3.721c.479 3.157.803 7.562 1.036 12.425.232 4.864.331 9.261.458 12.447l.169 3.771c0 .409.035.747.049 1.022.013.119.013.24 0 .359a1.243 1.243 0 0 1-.07-.352c0-.275-.071-.613-.113-1.022a99.125 99.125 0 0 1-.289-3.764c-.19-3.185-.345-7.59-.564-12.446-.218-4.856-.514-9.247-.923-12.405a66.96 66.96 0 0 0-.578-3.721l-.211-1.008a1.114 1.114 0 0 1-.057-.352zM155.654 259.777l-1.128 8.817.141 1.134s14.237 2.784 14.801 5.237l-25.951 4.229-1-5.956 1.409-14.526 11.728 1.065z" fill="#263238"/>
    <path d="M146.463 269.94a1.072 1.072 0 0 0-.535 1.325 1.022 1.022 0 0 0 1.311.542 1.123 1.123 0 0 0 .556-1.409 1.056 1.056 0 0 0-1.409-.409" fill="#E0E0E0"/>
    <path d="m143.51 279.229-.267-2.114 24.985-3.242s1.24.317 1.24 1.148l-25.958 4.208z" fill="#455A64"/>
    <path d="M155.069 269.552c0 .127-.606.289-1.163.797-.557.507-.803 1.099-.93 1.064-.127-.035-.057-.789.634-1.41.691-.62 1.466-.571 1.459-.451zM157.973 270.236c.049.12-.465.423-.804 1.029-.338.606-.38 1.191-.507 1.205-.127.014-.324-.705.12-1.409.444-.705 1.17-.945 1.191-.825zM160.052 273.238c-.113.05-.395-.556-.176-1.303.218-.748.754-1.121.825-1.022.07.098-.233.528-.395 1.141-.162.614-.134 1.156-.254 1.184z" fill="#fff"/>
    <path d="m222.694 236.138.071 8.887.296 1.107s14.483.838 15.364 3.192l-25.14 7.697-1.797-5.758-.578-14.583 11.784-.542z" fill="#263238"/>
    <path d="M214.956 247.422a1.084 1.084 0 0 0-.45.636c-.065.261-.03.537.097.773a1.03 1.03 0 0 0 1.375.36 1.131 1.131 0 0 0 .366-1.473 1.07 1.07 0 0 0-1.473-.212" fill="#E0E0E0"/>
    <path d="m213.285 257.021-.55-2.058 24.309-6.604s1.268.141 1.409.965l-25.168 7.697z" fill="#455A64"/>
    <path d="M223.434 245.878c0 .127-.564.366-1.05.944-.486.578-.648 1.198-.775 1.184-.127-.014-.162-.782.437-1.473.599-.69 1.374-.775 1.388-.655zM226.401 246.16c.064.113-.401.486-.662 1.128-.261.641-.212 1.233-.331 1.268-.12.036-.416-.641-.078-1.409.338-.768 1.036-1.1 1.071-.987zM228.84 248.859c-.106.057-.465-.5-.352-1.268.112-.769.599-1.213.705-1.128.105.084-.163.557-.247 1.191-.085.634.035 1.156-.106 1.205z" fill="#fff"/>
    <path d="m165.831 102.544-1.212-26.5c-.521-6.583 2.883-12.37 9.48-12.687h.606a11.807 11.807 0 0 1 11.685 10.946c.416 5.709.804 12.017.74 15.082-.127 6.344-6.47 7.267-6.47 7.267s.092 3.855.155 5.709l1.635 4.292-5.25-1.092-11.369-3.017z" fill="#FFBF9D"/>
    <path d="M180.66 96.638a15.301 15.301 0 0 1-8.204-2.488s1.953 4.778 8.275 4.229l-.071-1.741z" fill="#FF9A6C"/>
    <path d="M184.311 79.8a.901.901 0 0 1-.881.902.86.86 0 0 1-.923-.817.901.901 0 0 1 .881-.91.866.866 0 0 1 .923.825zM185.023 77.08c-.113.112-.797-.402-1.769-.402-.973 0-1.692.472-1.797.352-.106-.12.063-.26.38-.486a2.454 2.454 0 0 1 1.41-.43 2.344 2.344 0 0 1 1.409.465c.324.233.423.444.367.5zM175.424 79.941a.901.901 0 0 1-.881.902.865.865 0 0 1-.931-.817.908.908 0 0 1 .881-.91.868.868 0 0 1 .931.825zM175.473 77.235c-.113.12-.79-.395-1.762-.402-.973-.007-1.692.48-1.797.36-.106-.12.063-.269.373-.494.417-.28.908-.43 1.41-.43.507.003 1 .166 1.409.465.325.226.423.444.367.5zM178.912 84.734a6.61 6.61 0 0 1 1.579-.268c.254 0 .486-.07.529-.247a1.263 1.263 0 0 0-.155-.705l-.705-1.903c-1.001-2.7-1.72-4.933-1.607-4.933a33.21 33.21 0 0 1 2.009 4.82l.704 1.91c.155.303.2.649.127.98a.635.635 0 0 1-.416.36c-.137.037-.28.056-.422.056a6.28 6.28 0 0 1-1.643-.07zM175.818 74.183c-.141.246-1.078 0-2.227-.05-1.149-.049-2.114.134-2.227-.12-.049-.126.148-.345.55-.542a3.84 3.84 0 0 1 3.39.127c.394.232.571.472.514.585zM185.086 74.211c-.197.226-.993 0-1.945 0-.951 0-1.762.162-1.945-.07-.085-.113.042-.332.395-.55a3.176 3.176 0 0 1 1.578-.374c.55.001 1.088.152 1.558.437.338.226.451.451.359.557z" fill="#263238"/>
    <path d="M165.098 80.759c-.105-.043-4.341-1.318-4.228 3.016.112 4.335 4.433 3.334 4.433 3.207 0-.127-.205-6.223-.205-6.223z" fill="#FFBF9D"/>
    <path d="M163.936 85.354s-.078.049-.205.112a.706.706 0 0 1-.564 0 1.887 1.887 0 0 1-.902-1.656c-.018-.37.044-.741.183-1.085a.854.854 0 0 1 .557-.592.374.374 0 0 1 .451.197c.057.12.035.204.057.212.021.007.091-.078.049-.254a.46.46 0 0 0-.176-.268.564.564 0 0 0-.416-.099 1.058 1.058 0 0 0-.775.705c-.174.38-.254.795-.233 1.212a1.958 1.958 0 0 0 1.149 1.847.802.802 0 0 0 .705-.134c.112-.099.134-.19.12-.197z" fill="#FF9A6C"/>
    <path d="M175.875 85.439c.148 0 .19.98 1.071 1.656.881.676 1.931.521 1.945.662.014.141-.232.205-.705.233a2.482 2.482 0 0 1-1.621-.5 2.106 2.106 0 0 1-.831-1.41c-.029-.388.077-.641.141-.641zM194.939 68.298a1.02 1.02 0 0 0-.493-.592 3.2 3.2 0 0 0-1.628-.226 9.105 9.105 0 0 1-3.989-.909c.425-.217.813-.5 1.149-.839a2.741 2.741 0 0 0 .704-2.727.593.593 0 0 0-.352-.402c-.282-.084-.522.197-.705.423a2.34 2.34 0 0 1-2.185.98 3.672 3.672 0 0 1-1.656-.452.452.452 0 0 1-.056-.056l-.705-.655a14.426 14.426 0 0 0-4.553-3.221 14.668 14.668 0 0 0-7.873-.437c-2.192.627-4.13 2.46-4.39 4.722-1.255-1.015-3.116-.966-4.61-.324h-.035c-1.663.641-2.58 2.431-3.038 4.151 0 .099-.042.19-.07.289a6.623 6.623 0 0 1-2.206 2.255c-.162.099-.346.219-.36.402-.014.183.148.338.296.444.413.277.883.458 1.375.529-.143.41-.32.809-.529 1.19-.183.325-.402.706-.225 1.044a.703.703 0 0 0 .747.31c.279-.07.541-.197.768-.374l-.529 1.36a3.985 3.985 0 0 0 1.819-.161c.394 1.592.704 4.545 1.163 5.638 1.155 0 1.409-.141 2.015.042.754.233.501 1.565 1.466 1.17.494-.204 1.212-2.114 1.368-2.615 1.03-3.4 1.316-6.981.838-10.501a7.991 7.991 0 0 1 2.418-1.826l-.071.071c1.755-.656 3.743-1.304 5.441-.508 1.318.614 2.115 1.953 3.115 3.01a9.101 9.101 0 0 0 6.766 3.108c.289 1.903.437 5.032.571 6.816l1.445-3.609c.12-.212.212-.423.31-.634v-.07c.143-.35.303-.69.48-1.023a1.111 1.111 0 0 0 1.805-.774 1.11 1.11 0 0 0-.213-.755 2.45 2.45 0 0 0-.549-.529 1.773 1.773 0 0 0 1.691.395 1.408 1.408 0 0 0 .945-1.41 1.186 1.186 0 0 0-.705-.93 3.926 3.926 0 0 0 2.248-.55c.522-.254.945-.683.782-1.24z" fill="#263238"/>
    <path d="M170.265 64.59c-.22.187-.427.387-.621.6a4.558 4.558 0 0 0-.93 2.114 7.73 7.73 0 0 0-.127 1.614c0 .585.071 1.206.134 1.868.074.688.105 1.38.092 2.072a7.612 7.612 0 0 1-.12 1.107 2.26 2.26 0 0 1-.423 1.07.929.929 0 0 1-.888.318 1.413 1.413 0 0 1-.818-.437 3.278 3.278 0 0 1-.641-1.593h.127a5.078 5.078 0 0 1-.705 1.346 1.916 1.916 0 0 1-1.219.705 1.222 1.222 0 0 1-.656-.105 1.055 1.055 0 0 1-.451-.423 1.104 1.104 0 0 1-.148-.564.805.805 0 0 1 .19-.494l.071.057c-.366.442-.823.8-1.339 1.05a3.562 3.562 0 0 1-.416.176l-.197.05a.519.519 0 0 1 .141-.064l.408-.197a4.227 4.227 0 0 0 1.29-1.064l.071.056a.809.809 0 0 0 0 .944.928.928 0 0 0 .408.38c.187.079.391.108.592.085a1.775 1.775 0 0 0 1.135-.704c.296-.402.533-.843.705-1.311l.085-.205.049.219a3.14 3.14 0 0 0 .613 1.522c.186.205.433.343.705.395a.804.804 0 0 0 .754-.275c.213-.296.349-.64.395-1 .061-.357.099-.718.112-1.08.016-.689-.013-1.378-.084-2.064-.056-.656-.113-1.283-.113-1.875a8.458 8.458 0 0 1 .141-1.635c.134-.791.475-1.532.987-2.15.2-.206.433-.378.691-.507zM190.02 70.328l-.049.042-.162.12a1.45 1.45 0 0 1-.261.176c-.12.082-.248.153-.381.212a5.635 5.635 0 0 1-2.706.55 7.165 7.165 0 0 1-3.855-1.326 12.436 12.436 0 0 1-3.376-3.721c-.48-.754-.867-1.537-1.297-2.248a8.546 8.546 0 0 0-1.466-1.903 4.23 4.23 0 0 0-1.847-1.064 3.049 3.049 0 0 0-1.846.098c-.49.177-.935.458-1.304.825a3.525 3.525 0 0 0-.705.944c-.14.306-.242.628-.303.959v-.261a3.35 3.35 0 0 1 .225-.705c.179-.363.417-.694.705-.98a3.702 3.702 0 0 1 1.325-.86c.29-.11.594-.178.902-.204.339-.027.679.001 1.008.085a4.382 4.382 0 0 1 1.917 1.085 8.439 8.439 0 0 1 1.487 1.924c.437.705.832 1.502 1.304 2.249a12.468 12.468 0 0 0 3.327 3.686 7.102 7.102 0 0 0 3.785 1.332 5.682 5.682 0 0 0 2.671-.494c.31-.157.611-.33.902-.521z" fill="#455A64"/>
    <path d="M190.534 67.53a1.198 1.198 0 0 1-.225.162 4.779 4.779 0 0 1-.67.359 6.94 6.94 0 0 1-1.057.373 8.355 8.355 0 0 1-1.36.212 7.85 7.85 0 0 1-1.374-.063 6.952 6.952 0 0 1-1.093-.261 4.384 4.384 0 0 1-.705-.282c-.162-.078-.246-.127-.239-.141.007-.014.366.148.972.324.354.1.714.173 1.079.219.446.055.896.074 1.346.056.45-.033.898-.099 1.339-.197.357-.091.707-.204 1.05-.339.585-.24.923-.45.937-.423z" fill="#455A64"/>
    <path d="m152.722 186.295-5.222 32.702s-6.781 40.582-6.957 48.758l17.507.331s5.089-38.58 8.458-44.254c3.369-5.674 10.537-50.9 10.537-50.9l-24.323 13.363z" fill="#263238"/>
    <path d="M178.87 169.563s35.19 18.79 37.946 23.258c2.756 4.468 8.176 51.239 8.176 51.239l-15.724 5.596-7.823-42.725-37.897-14.096s-10.142-4.074-14.893-8.718c-4.75-4.645-3.446-13.201-3.446-13.201l3.277-4.229 31.991-5.575-1.607 8.451z" fill="#263238"/>
    <path d="M155.682 190.277c.141.087.293.155.451.204l1.318.508 4.878 1.818 16.069 6.026c6.28 2.354 11.981 4.454 16.112 5.92 2.072.74 3.749 1.318 4.933 1.706l1.339.444c.154.061.315.103.479.127a2.83 2.83 0 0 0-.451-.198l-1.318-.507-4.877-1.818-16.083-6.047a1057.618 1057.618 0 0 0-16.112-5.928c-2.072-.705-3.749-1.318-4.933-1.705l-1.339-.437a3.262 3.262 0 0 0-.466-.113zM179.053 169.697a40.392 40.392 0 0 1-4.229-1.015c-2.318-.592-4.228-.916-4.228-1.015 1.461.019 2.912.24 4.313.655 1.429.301 2.819.762 4.144 1.375z" fill="#455A64"/>
    <path d="m182.176 104.785-1.41-3.475-.592.881-.55-.909-15.061-6.752-1.269 3.144-4.934 1.896a9.63 9.63 0 0 0-6.018 7.266l-1.84 22.194.049 3.594-.521 12.271c.472.803-5.751 10.086-5.935 13.391-.183 3.306 3.158 6.04 3.158 6.04l33.168 2.516s1.677.247 3.065-2.819c1.213-2.685 1.114-21.087 1.114-21.087s.078-9.867.402-16.605a66.438 66.438 0 0 0-1.029-12.102l-1.797-9.444z" fill="#EBEBEB"/>
    <path d="m162.646 97.37 1.346-2.191s6.752 4.729 8.457 9.557c1.706 4.828 1.699 26.148.818 32.075-.959 6.4-1.515 14.025-11.664 24.745-11.672 12.334-7.33 25.288-9.663 26.219 0 0-17.93-5.744-17.62-7.753 1.409-9.902 13.701-32.075 13.807-32.364l1.797-19.875-.204-23.527c2.819-1.902 4.292-3.467 6.921-4.334l6.005-2.551z" fill="#FF725E"/>
    <path opacity=".3" d="m164.02 117.711-15.202 21.891.676-7.457 14.526-14.434z" fill="#000"/>
    <path d="M170.885 146.304c.024-.18.059-.359.105-.535.078-.388.191-.888.325-1.523a61.12 61.12 0 0 0 .859-5.638c.12-1.198.219-2.516.233-3.933a40.85 40.85 0 0 0-.247-4.518c-.289-3.185-.599-6.681-.93-10.353-.24-2.819-.479-5.476-.705-7.985v-.099l1.586-3.066.113.233-1.734-.444h-.056v-.043c-2.284-3.333-4.229-6.096-5.568-8.02-.705-.959-1.22-1.706-1.607-2.206-.191-.254-.346-.437-.444-.564-.099-.127-.169-.176-.162-.183.007-.007.965.951 2.368 2.819 1.402 1.868 3.369 4.63 5.673 7.943l-.091-.063 1.733.437.205.049-.099.183-1.571 3.08v-.099c.225 2.51.465 5.202.704 7.986.317 3.679.621 7.175.902 10.367.155 1.511.226 3.028.212 4.546 0 1.41-.141 2.749-.275 3.954a49.89 49.89 0 0 1-.987 5.639 31.421 31.421 0 0 1-.387 1.508 2.622 2.622 0 0 1-.155.528zM148.853 156.876s-.092.106-.268.261l-.796.663-2.904 2.347-.05-.24 9.487 2.819-.169.035.056-.049 4.011-3.524.07.296-6.766-1.825-1.959-.557a3.986 3.986 0 0 1-.705-.24c.238.023.474.066.705.127l1.959.458c1.677.402 4.067.994 6.865 1.699l.317.084-.247.212-3.996 3.524-.056.049-.078.071h-.092l-9.465-2.89-.261-.078.219-.162 3.023-2.269c.352-.29.719-.56 1.1-.811zM182.711 107.209c-.042 0-.261-.437-.775-1.12l-.945-1.212a8.278 8.278 0 0 1-1.05-1.699l.296.035-1.614 2.115c-.423.556-.831 1.085-1.212 1.592l-.092.113-.126-.063c-1.452-.705-2.714-1.262-3.595-1.699a7.493 7.493 0 0 1-1.41-.754 8.5 8.5 0 0 1 1.481.55c.909.38 2.184.93 3.65 1.586l-.211.049 1.198-1.593 1.635-2.114.183-.233.113.268a20.39 20.39 0 0 0 1.854 2.925c.286.374.497.8.62 1.254z" fill="#263238"/>
    <path d="M180.153 103.234a.723.723 0 0 1 .056.162l.127.48c.106.423.254 1.05.43 1.853.345 1.621.796 3.975 1.283 6.9.239 1.459.486 3.059.705 4.786.119.86.253 1.755.331 2.685.077.93.106 1.889.12 2.869.035 1.959 0 4.017-.064 6.145a156.034 156.034 0 0 1-.31 6.59c-.317 4.511-.867 8.782-1.367 12.687-.501 3.904-1.008 7.372-1.621 10.276a83.465 83.465 0 0 1-1.755 6.794 92.74 92.74 0 0 1-.571 1.818l-.162.465a.629.629 0 0 1-.064.162.437.437 0 0 1 0-.169l.127-.479c.12-.451.289-1.064.501-1.84.43-1.592 1.064-3.904 1.635-6.801.571-2.896 1.071-6.385 1.55-10.269.48-3.883 1.022-8.147 1.332-12.686.162-2.248.254-4.447.318-6.576.063-2.128.112-4.179.084-6.131 0-.973-.042-1.925-.106-2.82-.063-.895-.197-1.811-.31-2.671a130.676 130.676 0 0 0-.705-4.792 213.936 213.936 0 0 0-1.162-6.907c-.155-.783-.275-1.41-.36-1.868l-.091-.486a.497.497 0 0 1 .049-.177z" fill="#263238"/>
    <path d="M131.973 177.548c.168.93.225 1.876.169 2.82-.148.986-1.811 4.475-1.811 4.475s-.938.063-.705-2.269c.096-1.13.294-2.248.592-3.341l1.755-1.685z" fill="#FFBF9D"/>
    <path d="M117.073 195.499s-.373-14.349 2.721-16.372c3.094-2.023 7.555-3.672 9.092-1.727a25.392 25.392 0 0 1 4.229 8.274 54.303 54.303 0 0 1 1.374 8.529l-3.834.091s-1.72-14.096-3.151-16.048c-1.43-1.952-7.012.529-7.308 3.129-.296 2.601-.169 14.047-.169 14.047l-2.954.077z" fill="#455A64"/>
    <path d="M106.621 217.214c-.613-5.857-1.79-18.797-2.304-24.484a2.897 2.897 0 0 1 2.509-3.137l34.718-4.482a2.904 2.904 0 0 1 3.235 2.403l3.919 23.864a2.896 2.896 0 0 1-.528 2.188 2.9 2.9 0 0 1-1.932 1.153l-36.332 5.061a2.88 2.88 0 0 1-2.189-.584 2.903 2.903 0 0 1-1.096-1.982z" fill="#455A64"/>
    <path d="m129.062 184.103 2.918-6.442-.134-7.809-8.662-1.036-3.193 7.189s-.275 3.876 0 4.757c.275.881 1.607.874 1.607.874.198 1.205 1.995 1.558 1.995 1.558.402 1.311 2.051.937 2.051.937s.669 1.48 1.205 1.635c.241.041.489.001.705-.113a3.035 3.035 0 0 0 1.508-1.55z" fill="#FFBF9D"/>
    <path d="M121.711 179.691c.085 0 .12.429.085.951-.036.522-.141.937-.233.93-.092-.007-.12-.437-.084-.951.035-.515.148-.938.232-.93zM123.826 180.473a4.64 4.64 0 0 1-.099 1.41 4.925 4.925 0 0 1-.219 1.374 3.941 3.941 0 0 1 .318-2.756v-.028zM126.081 181.685c.084.036-.064.557-.205 1.206-.141.648-.232 1.177-.324 1.177a1.987 1.987 0 0 1 0-1.248c.162-.677.451-1.17.529-1.135zM131.021 179.663c-.218.874-.535 1.72-.944 2.523a11.85 11.85 0 0 1-1.226 2.389 22.281 22.281 0 0 1 2.17-4.933v.021zM122.155 178.33c0 .043-.078.113-.261.134a.954.954 0 0 1-.669-.169.952.952 0 0 1-.388-.571c-.042-.176 0-.282.035-.289.036-.007.191.367.536.606.345.24.726.205.747.289zM124.389 179.747c0 .042-.098.099-.289.113a1.254 1.254 0 0 1-.704-.219 1.176 1.176 0 0 1-.459-.585c-.063-.183-.042-.303 0-.31.043-.007.233.367.635.635.402.267.81.281.817.366zM129.196 181.227c.042 0 .113.254-.197.451a1.476 1.476 0 0 1-1.17.056 1.84 1.84 0 0 1-.938-.704c-.169-.247-.19-.437-.155-.451.336.357.742.643 1.191.838.313.111.652.125.973.043.219-.057.254-.233.296-.233z" fill="#FF9A6C"/>
    <path d="M146.083 211.096s0-.063-.056-.197c-.057-.134-.071-.352-.127-.606l-.465-2.319c-.395-2.044-.952-4.933-1.643-8.549-.345-1.804-.704-3.778-1.113-5.899-.205-1.064-.409-2.164-.62-3.291-.057-.282-.106-.571-.163-.853l-.084-.423a.64.64 0 0 0-.162-.324.705.705 0 0 0-.656-.247l-.895.12-15.674 2.037-15.675 2.015a2.79 2.79 0 0 0-.818.162.751.751 0 0 0-.373.6c0 .542.077 1.155.113 1.719.084 1.149.162 2.263.239 3.341.151 2.157.289 4.156.416 5.998.247 3.644.444 6.604.585 8.683.063 1.001.106 1.79.141 2.361v.613a.94.94 0 0 1 0 .212.94.94 0 0 1 0-.212l-.063-.606c-.057-.571-.12-1.36-.212-2.361l-.705-8.676c-.148-1.833-.303-3.834-.465-5.991-.084-1.078-.169-2.192-.261-3.334-.035-.585-.098-1.134-.119-1.776a1.081 1.081 0 0 1 .535-.86c.15-.083.316-.133.486-.148l.452-.056 15.681-2.044 15.654-2.016.895-.112a1.08 1.08 0 0 1 1.184.824l.085.437c.049.289.098.571.155.853.204 1.135.408 2.234.599 3.299.387 2.114.747 4.101 1.071 5.913.641 3.594 1.163 6.519 1.529 8.563.169.994.303 1.776.395 2.333.042.254.07.451.099.613a.947.947 0 0 1 .035.204z" fill="#263238"/>
    <path d="m129.427 193.606-8.17 1.006a.367.367 0 0 0-.319.409l.188 1.525a.365.365 0 0 0 .408.319l8.17-1.006a.367.367 0 0 0 .319-.409l-.187-1.525a.368.368 0 0 0-.409-.319z" fill="#263238"/>
    <path d="m160.708 120.932-20.996 20.869-5.639 29.397-12.686-1.515 4.652-28.897a28.895 28.895 0 0 1 5.307-12.623l15.738-21.327a11.974 11.974 0 0 1 9.233-5.18 8.545 8.545 0 0 1 5.871 2.241c3.171 3.418 2.903 7.936 2.819 9.31" fill="#FF725E"/>
    <path d="M164.985 113.179c.075-.57.106-1.145.092-1.72a12.552 12.552 0 0 0-.987-4.82 9.871 9.871 0 0 0-1.98-2.982 8.29 8.29 0 0 0-3.75-1.896 9.383 9.383 0 0 0-4.863.254 12.028 12.028 0 0 0-4.736 2.742 13.845 13.845 0 0 0-1.931 2.241l-1.833 2.467-3.883 5.236-8.563 11.545c-.747 1.022-1.537 2.03-2.256 3.122a29.303 29.303 0 0 0-4.376 11.214c-.874 5.441-1.783 11.072-2.714 16.837-.662 4.151-1.318 8.232-1.959 12.207v.19h.19l12.686 1.509h.17v-.162c2.114-11.03 4.017-21.01 5.638-29.404l-.042.077 15.223-15.266 4.166-4.229 1.078-1.092c.24-.254.352-.388.352-.388s-.134.113-.38.353l-1.107 1.127-4.229 4.138-15.378 15.202v.049c-1.628 8.387-3.524 18.325-5.702 29.383l.197-.141-12.686-1.522.162.211c.642-3.982 1.297-8.062 1.967-12.207.923-5.772 1.825-11.403 2.699-16.844a28.966 28.966 0 0 1 2.403-7.668 28.187 28.187 0 0 1 1.91-3.405c.705-1.078 1.487-2.114 2.234-3.115 3.01-4.074 5.864-7.943 8.536-11.573l3.869-5.243 1.825-2.474a14.405 14.405 0 0 1 1.882-2.213 11.802 11.802 0 0 1 4.631-2.7 9.044 9.044 0 0 1 4.75-.281 8.022 8.022 0 0 1 3.7 1.846 9.771 9.771 0 0 1 1.974 2.904 12.706 12.706 0 0 1 1.043 4.771v1.276c0 .289-.022.444-.022.444z" fill="#263238"/>
</svg>
