<svg width="204" height="29" viewBox="0 0 204 29" fill="none" xmlns="http://www.w3.org/2000/svg">
    <path d="M72.435 25.745v-6.118c0-.55-.344-.795-1.698-.846v-.316h4.73v.316c-1.42 0-1.56.265-1.56.846v5.781c0 2.04 1.387 2.702 3.096 2.702.365.015.728-.04 1.07-.16.341-.12.654-.306.919-.543a2.76 2.76 0 0 0 .678-1.018c.145-.383.2-.79.16-1.195V20.82c0-1.386-.408-1.876-1.924-2.039v-.275h4.052v.275c-1.418.235-1.633.693-1.633 2.04v4.669c0 1.754-1.323 3.18-3.913 3.18s-3.977-1.13-3.977-2.925zM85.086 19.984v6.118c0 1.396.247 1.865 1.785 2.039v.295h-4.053v-.295c1.43-.214 1.752-.673 1.752-2.04v-5.974c0-.724-.451-1.315-1.752-1.346v-.316h2.967l6.04 7.79V20.82c0-1.386-.397-1.876-1.923-2.039v-.275h4.073v.275c-1.43.235-1.644.693-1.644 2.04v7.85h-.484l-6.76-8.687zM95.029 28.1c1.375 0 1.709-.296 1.709-.836v-7.637c0-.55-.334-.795-1.71-.846v-.316h4.88v.316c-1.386 0-1.709.296-1.709.846v7.637c0 .54.323.795 1.71.836v.336h-4.88V28.1zM102.586 20.056c-.344-.857-.592-1.091-1.774-1.295v-.296h4.654v.316c-1.419.082-1.634.357-1.354 1.081l2.623 6.974h.064l2.44-6.118c.548-1.396.344-1.794-1.075-2.039v-.275h3.633v.275c-1.074.204-1.429.694-2.031 2.172l-3.225 7.79h-.505l-3.45-8.585zM112.485 28.1c1.354 0 1.677-.296 1.677-.836v-7.637c0-.55-.323-.795-1.677-.846v-.316h8.599v2.947h-.344c-.645-1.795-1.182-2.55-2.945-2.55h-2.15v4.17h.946c1.236 0 1.774-.244 2.15-1.824h.312v4.078h-.312c-.408-1.58-.946-1.846-2.15-1.846h-.946v4.538h2.15c2.075 0 2.763-.898 3.451-2.763h.333l-.076 3.18h-9.018V28.1zM126.125 27.264c0 .57.237.795 1.666.836v.336h-4.815V28.1c1.354 0 1.677-.296 1.677-.836v-7.637c0-.55-.323-.795-1.677-.846v-.316h4.428c3.139 0 4.235 1.101 4.235 2.416 0 1.316-.816 2.162-2.934 2.529v.05c2.085.133 2.44.97 2.655 2.285l.172 1.02c.193 1.1.516 1.304 1.741 1.335v.326a5.012 5.012 0 0 1-1.075.112c-1.827 0-2.149-.479-2.3-1.835l-.14-1.274c-.15-1.458-.677-1.785-2.407-1.785h-1.258l.032 3.62zm1.344-4.027c2.074 0 2.547-.898 2.547-2.315 0-1.417-.666-2.039-2.719-2.039h-1.172v4.364l1.344-.01zM134.424 25.327h.355c.827 1.804 1.827 2.926 3.342 2.926.285.02.572-.013.843-.098.272-.086.522-.222.737-.4.216-.179.391-.396.517-.64.125-.243.198-.508.215-.779 0-1.244-.882-1.682-2.806-2.335-1.451-.489-2.988-.887-2.988-2.742-.002-.427.09-.85.271-1.24a3.06 3.06 0 0 1 .777-1.03 3.265 3.265 0 0 1 1.151-.643 3.385 3.385 0 0 1 1.326-.146 5.922 5.922 0 0 1 2.15.388l.495-.48h.268v3.06h-.344c-.623-1.622-1.547-2.55-2.805-2.55a1.964 1.964 0 0 0-.767.11 1.89 1.89 0 0 0-.654.396 1.775 1.775 0 0 0-.428.614c-.096.23-.14.478-.129.726 0 1.203.968 1.59 2.677 2.13 1.44.48 2.945.928 2.945 2.804a2.91 2.91 0 0 1-.212 1.31c-.17.416-.435.792-.775 1.1a3.26 3.26 0 0 1-1.194.688c-.446.144-.92.193-1.388.144a6.1 6.1 0 0 1-2.397-.52l-.87.582h-.28l-.032-3.375zM143.077 28.1c1.386 0 1.709-.296 1.709-.836v-7.637c0-.55-.323-.795-1.709-.846v-.316h4.88v.316c-1.376 0-1.709.296-1.709.846v7.637c0 .54.333.795 1.709.836v.336h-4.88V28.1zM151.181 28.1c1.387 0 1.806-.296 1.806-.836v-8.39h-.731c-1.322 0-1.967.845-2.73 2.64h-.344l.097-3.059h8.975l.097 3.059h-.344c-.688-1.693-1.365-2.64-2.73-2.64h-.785v8.39c0 .54.419.795 1.806.836v.337h-5.117V28.1zM166.649 20.463c.71-1.162.699-1.529-.752-1.723v-.275h3.558v.275c-.957.174-1.398.439-2.15 1.713l-2.257 3.6v3.21c0 .541.311.796 1.709.837v.336h-4.891V28.1c1.397 0 1.709-.296 1.709-.836v-3.008l-2.719-4.435a1.86 1.86 0 0 0-.671-.721 1.996 1.996 0 0 0-.963-.299v-.295h4.525v.316c-1.451.082-1.559.428-1.161 1.09l2.15 3.692 1.913-3.14zM36.544.43h3.107l2.397 8.88 2.6-8.92h2.56l2.622 8.92L52.205.43h3.042l-4.03 13.56h-2.73l-2.645-8.574-2.59 8.574h-2.688L36.544.43zM56.742.43H65.9v2.518h-6.235v2.915h5.525v2.55h-5.482v3.058h6.31v2.518h-9.276V.43zM67.168 12.103l1.752-2.039c.943.9 2.201 1.44 3.536 1.52 1.075 0 1.827-.541 1.827-1.326 0-.673-.408-1.101-2.44-1.835-2.515-.928-4.084-1.825-4.084-4.14 0-2.345 1.913-3.946 4.654-3.946a7.009 7.009 0 0 1 4.6 1.57l-1.655 2.121a5.122 5.122 0 0 0-3.031-1.254c-1.01 0-1.645.49-1.645 1.183 0 .765.495 1.132 2.698 2.039 2.483.928 3.827 1.927 3.827 4.078 0 2.498-2.01 4.078-4.772 4.078-1.97-.013-3.856-.747-5.267-2.049zM81.69 3.009h-3.601V.429H88.16v2.58h-3.547v10.899H81.69v-10.9zM89.697.43h9.158v2.518h-6.234v2.915h5.482v2.55H92.62v3.058h6.32v2.518h-9.244V.43zM100.844.43h5.374a5.513 5.513 0 0 1 2.069.275 5.315 5.315 0 0 1 1.79 1.019c.411.417.728.908.933 1.444.205.536.294 1.106.26 1.676v.071a3.92 3.92 0 0 1-.649 2.39 4.252 4.252 0 0 1-1.984 1.597l3.02 5.006h-3.364l-2.655-4.425h-1.849v4.425h-2.945V.429zm5.116 6.585c.3.039.604.014.892-.073.287-.087.551-.233.772-.428.221-.195.394-.434.506-.7a1.84 1.84 0 0 0 .141-.838c0-1.345-.87-2.039-2.375-2.039h-2.15v4.078h2.214zM113.345.43h2.709l5.439 7.86V.43h2.88v13.478h-2.515l-5.632-8.157v8.157h-2.881V.429zM130.758 12.103l1.752-2.039c.939.9 2.194 1.44 3.526 1.52 1.139 0 1.827-.541 1.827-1.326 0-.673-.397-1.101-2.429-1.835-2.526-.928-4.085-1.825-4.085-4.14 0-2.345 1.903-3.945 4.655-3.945a6.975 6.975 0 0 1 4.579 1.651l-1.677 2.04a5.086 5.086 0 0 0-3.02-1.255c-1.011 0-1.645.49-1.645 1.183 0 .765.484 1.132 2.698 2.04 2.483.927 3.816 1.926 3.816 4.077 0 2.498-2.01 4.079-4.773 4.079-1.953-.024-3.823-.758-5.224-2.05zM145.807 8.596 141.174.439h3.332l2.806 5.292 2.794-5.302h3.225l-4.633 8.157v5.352h-2.891V8.596zM154.804.43h4.59c4.127 0 6.782 2.69 6.782 6.647v.173c0 3.946-2.655 6.658-6.782 6.658h-4.59V.429zm2.945 2.518v8.441h1.623c2.236 0 3.762-1.488 3.762-4.16v-.101c0-2.672-1.526-4.18-3.762-4.18h-1.623zM167.885.43h2.698l5.439 7.86V.43h2.892v13.478h-2.526l-5.622-8.157v8.157h-2.881V.429zM181.16.43h9.158v2.518h-6.234v2.915h5.482v2.55h-5.482v3.058h6.32v2.518h-9.244V.43zM196.08 8.596 191.447.439h3.332l2.805 5.292 2.817-5.302h3.224l-4.622 8.157v5.352h-2.945l.022-5.342zM.696.39v17.046c0 6.27 11.942 11.297 11.953 11.297.01 0 11.953-5.027 11.953-11.297V.39H.696zm17.542 20.39a10.655 10.655 0 0 0-3.127-1.02l-2.473-9.797-2.461 9.767c-1.097.18-2.157.523-3.139 1.02L3.083 4.926h2.483l3.02 11.888 2.999-11.888h2.15l3.063 11.888 2.913-11.888h2.483L18.238 20.78z" fill="#fff"/>
</svg>
