<?xml version="1.0" encoding="UTF-8" standalone="no"?>
<svg width="24px" height="24px" viewBox="0 0 24 24" version="1.1" xmlns="http://www.w3.org/2000/svg" xmlns:xlink="http://www.w3.org/1999/xlink">
    <!-- Generator: Sketch 43.1 (39012) - http://www.bohemiancoding.com/sketch -->
    <title>ic_snapchat</title>
    <desc>Created with Sketch.</desc>
    <defs></defs>
    <g id="Templates" stroke="none" stroke-width="1" fill="none" fill-rule="evenodd">
        <g id="ic_snapchat" fill="#000000">
            <path d="M12.1178126,6.00011082 C12.8157328,5.99490246 13.4420286,6.17328609 13.9967189,6.53526707 C14.5514092,6.89724804 14.9771861,7.39854511 15.2740626,8.03917332 C15.4146883,8.34125816 15.4850001,8.80739933 15.4850001,9.43761082 C15.4850001,9.68240371 15.4615629,10.1797946 15.4146876,10.9297983 C15.4876047,10.9662568 15.5605206,10.9844858 15.6334376,10.9844858 C15.7271881,10.9844858 15.8599993,10.9493299 16.0318751,10.8790171 C16.203751,10.8087042 16.3365622,10.7735483 16.4303126,10.7735483 C16.5813551,10.7735483 16.7271869,10.8204228 16.8678126,10.9141733 C17.0084383,11.0079238 17.0787501,11.1277143 17.0787501,11.2735483 C17.0787501,11.4402158 16.9967197,11.5808394 16.8326564,11.6954233 C16.6685931,11.8100072 16.4889074,11.8920377 16.2935939,11.9415171 C16.0982804,11.9909965 15.9185947,12.0665166 15.7545314,12.1680796 C15.5904681,12.2696426 15.5084376,12.3933393 15.5084376,12.5391733 C15.5084376,12.6172987 15.5396873,12.7292768 15.6021876,12.8751108 C15.7948969,13.3021963 16.0618213,13.6928174 16.4029689,14.0469858 C16.7441164,14.4011543 17.1204147,14.6641725 17.5318751,14.8360483 C17.6777092,14.8985486 17.8860404,14.9584439 18.1568751,15.0157358 C18.3027092,15.046986 18.3756251,15.1381309 18.3756251,15.2891733 C18.3756251,15.6537585 17.8053183,15.921985 16.6646876,16.0938608 C16.6282291,16.1511528 16.5995836,16.2527143 16.5787501,16.3985483 C16.5579167,16.5443824 16.5214587,16.6654749 16.4693751,16.7618296 C16.4172915,16.8581842 16.3313549,16.9063608 16.2115626,16.9063608 C16.1073954,16.9063608 15.9459387,16.8894339 15.7271876,16.8555796 C15.5084365,16.8217252 15.3417715,16.8047983 15.2271876,16.8047983 C15.0344783,16.8047983 14.8730216,16.817819 14.7428126,16.8438608 C14.5761451,16.8699026 14.4120843,16.9284958 14.2506251,17.0196421 C14.089166,17.1107884 13.9381258,17.2097457 13.7975001,17.3165171 C13.6568744,17.4232884 13.5058343,17.5287561 13.3443751,17.6329233 C13.182916,17.7370905 12.9850013,17.8243292 12.7506251,17.8946421 C12.516249,17.9649549 12.258439,18.0001108 11.9771876,18.0001108 C11.7063529,18.0001108 11.4550534,17.9649549 11.2232814,17.8946421 C10.9915094,17.8243292 10.7961988,17.7370905 10.6373439,17.6329233 C10.4784889,17.5287561 10.3287508,17.4232884 10.1881251,17.3165171 C10.0474994,17.2097457 9.89645927,17.1107884 9.73500013,17.0196421 C9.57354099,16.9284958 9.41208427,16.8699026 9.25062513,16.8438608 C9.11520779,16.817819 8.95114693,16.8047983 8.75843763,16.8047983 C8.63343701,16.8047983 8.4628658,16.8243294 8.24671888,16.8633921 C8.03057197,16.9024548 7.87822974,16.9219858 7.78968763,16.9219858 C7.65947865,16.9219858 7.56833373,16.8738092 7.51625013,16.7774546 C7.46416654,16.6810999 7.42770857,16.5574032 7.40687513,16.4063608 C7.3860417,16.2553184 7.35739615,16.1511528 7.32093763,16.0938608 C6.18030693,15.921985 5.61000013,15.6537585 5.61000013,15.2891733 C5.61000013,15.1381309 5.68291607,15.046986 5.82875013,15.0157358 C6.09958482,14.9584439 6.30791607,14.8985486 6.45375013,14.8360483 C6.86000216,14.6693808 7.23630049,14.4063626 7.58265638,14.0469858 C7.92901228,13.687609 8.1959367,13.2969879 8.38343763,12.8751108 C8.44593795,12.7292768 8.47718763,12.6172987 8.47718763,12.5391733 C8.47718763,12.3933393 8.3951572,12.2696426 8.23109388,12.1680796 C8.06703056,12.0665166 7.88604279,11.9896944 7.68812513,11.9376108 C7.49020748,11.8855272 7.3092197,11.8034968 7.14515638,11.6915171 C6.98109306,11.5795373 6.89906263,11.44282 6.89906263,11.2813608 C6.89906263,11.1407351 6.96677029,11.0222467 7.10218763,10.9258921 C7.23760498,10.8295374 7.38083271,10.7813608 7.53187513,10.7813608 C7.61000052,10.7813608 7.73499927,10.8152146 7.90687513,10.8829233 C8.07875099,10.950632 8.21677045,10.9844858 8.32093763,10.9844858 C8.4146881,10.9844858 8.4980206,10.9662568 8.57093763,10.9297983 C8.5240624,10.1902113 8.50062513,9.69542457 8.50062513,9.44542332 C8.50062513,8.81000347 8.57093693,8.34125816 8.71156263,8.03917332 C9.04489763,7.32562808 9.49280982,6.81000824 10.0553126,6.49229832 C10.6178154,6.1745884 11.3053086,6.01052754 12.1178126,6.00011082 Z" id=""></path>
        </g>
    </g>
</svg>