<?xml version="1.0" encoding="UTF-8" standalone="no"?>
<svg width="24px" height="24px" viewBox="0 0 24 24" version="1.1" xmlns="http://www.w3.org/2000/svg" xmlns:xlink="http://www.w3.org/1999/xlink">
    <!-- Generator: Sketch 43.1 (39012) - http://www.bohemiancoding.com/sketch -->
    <title>ic_linkedin</title>
    <desc>Created with Sketch.</desc>
    <defs></defs>
    <g id="Templates" stroke="none" stroke-width="1" fill="none" fill-rule="evenodd">
        <g id="ic_linkedin" fill="#000000">
            <path d="M8.7265625,9.7265625 L8.7265625,17.46875 L6.1484375,17.46875 L6.1484375,9.7265625 L8.7265625,9.7265625 Z M8.890625,7.3359375 C8.89583336,7.71614773 8.76432426,8.03385289 8.49609375,8.2890625 C8.22786324,8.54427211 7.87500219,8.671875 7.4375,8.671875 L7.421875,8.671875 C6.99478953,8.671875 6.65104297,8.54427211 6.390625,8.2890625 C6.13020703,8.03385289 6,7.71614773 6,7.3359375 C6,6.95051891 6.13411324,6.63151168 6.40234375,6.37890625 C6.67057426,6.12630082 7.02083117,6 7.453125,6 C7.88541883,6 8.23176953,6.12630082 8.4921875,6.37890625 C8.75260547,6.63151168 8.88541664,6.95051891 8.890625,7.3359375 Z M12.71875,10.8267495 C12.8179623,10.670382 12.9195239,10.5328209 13.0234375,10.4140625 C13.132813,10.2890619 13.279947,10.1536466 13.4648438,10.0078125 C13.6497405,9.86197844 13.8763007,9.74869832 14.1445312,9.66796875 C14.4127618,9.58723918 14.7109359,9.546875 15.0390625,9.546875 C15.929692,9.546875 16.6458306,9.84244496 17.1875,10.4335938 C17.7291694,11.0247425 18,11.8906193 18,13.03125 L18,17.46875 L15.4296875,17.46875 L15.4296875,13.328125 C15.4296875,12.7812473 15.3242198,12.3528661 15.1132812,12.0429688 C14.9023427,11.7330714 14.5729189,11.578125 14.125,11.578125 C13.7968734,11.578125 13.5221365,11.6679679 13.3007812,11.8476562 C13.079426,12.0273446 12.914063,12.2499987 12.8046875,12.515625 C12.7473955,12.6718758 12.71875,12.8828112 12.71875,13.1484375 L12.71875,17.46875 L10.1484375,17.46875 C10.1588542,15.3906146 10.1640625,13.7057356 10.1640625,12.4140625 C10.1640625,11.1223894 10.1614584,10.3515638 10.15625,10.1015625 L10.1484375,9.7265625 L12.71875,9.7265625 L12.71875,10.8267495 L12.71875,10.8267495 Z" id=""></path>
        </g>
    </g>
</svg>