<?xml version="1.0" encoding="UTF-8" standalone="no"?>
<svg width="24px" height="24px" viewBox="0 0 24 24" version="1.1" xmlns="http://www.w3.org/2000/svg" xmlns:xlink="http://www.w3.org/1999/xlink">
    <!-- Generator: Sketch 43.1 (39012) - http://www.bohemiancoding.com/sketch -->
    <title>ic_twitter</title>
    <desc>Created with Sketch.</desc>
    <defs></defs>
    <g id="Templates" stroke="none" stroke-width="1" fill="none" fill-rule="evenodd">
        <g id="ic_twitter" fill="#000000">
            <path d="M18.1525002,8.1875 C17.8035401,8.69791922 17.3816693,9.1328107 16.8868752,9.4921875 C16.8920835,9.56510453 16.8946877,9.67447844 16.8946877,9.8203125 C16.8946877,10.4973992 16.7957303,11.1731737 16.5978127,11.8476562 C16.399895,12.5221388 16.0991168,13.1692677 15.6954689,13.7890625 C15.2918211,14.4088573 14.8113571,14.9570289 14.2540627,15.4335938 C13.6967682,15.9101586 13.0248999,16.2903632 12.2384377,16.5742188 C11.4519754,16.8580743 10.610838,17 9.71500015,17 C8.30353476,17 7.01188101,16.6223996 5.84000015,15.8671875 C6.02229273,15.8880209 6.2254157,15.8984375 6.44937515,15.8984375 C7.62125601,15.8984375 8.6655164,15.5390661 9.58218765,14.8203125 C9.03530992,14.8098958 8.54573148,14.6419287 8.11343765,14.3164062 C7.68114382,13.9908838 7.38427179,13.5755234 7.22281265,13.0703125 C7.39468851,13.0963543 7.55354109,13.109375 7.69937515,13.109375 C7.92333461,13.109375 8.14468656,13.0807295 8.36343765,13.0234375 C7.7801014,12.9036452 7.29703332,12.6132836 6.9142189,12.1523438 C6.53140449,11.6914039 6.34000015,11.156253 6.34000015,10.546875 L6.34000015,10.515625 C6.69416859,10.7135427 7.07437312,10.8203124 7.48062515,10.8359375 C7.13687343,10.6067697 6.86343867,10.3072935 6.66031265,9.9375 C6.45718664,9.56770648 6.35562515,9.16666883 6.35562515,8.734375 C6.35562515,8.27603937 6.47020734,7.85156445 6.69937515,7.4609375 C7.32958664,8.23698305 8.09650605,8.85807059 9.0001564,9.32421875 C9.90380675,9.79036691 10.871245,10.0494789 11.9025002,10.1015625 C11.8608333,9.90364484 11.8400002,9.71093844 11.8400002,9.5234375 C11.8400002,8.82551734 12.0860914,8.23047121 12.5782814,7.73828125 C13.0704714,7.24609129 13.6655175,7 14.3634377,7 C15.092608,7 15.7071852,7.26562234 16.2071877,7.796875 C16.7748988,7.68749945 17.3087477,7.48437648 17.8087502,7.1875 C17.6160409,7.78646133 17.2462529,8.24999836 16.6993752,8.578125 C17.1837526,8.52604141 17.6681227,8.39583437 18.1525002,8.1875 Z" id=""></path>
        </g>
    </g>
</svg>