<?xml version="1.0" encoding="UTF-8" standalone="no"?>
<svg width="24px" height="24px" viewBox="0 0 24 24" version="1.1" xmlns="http://www.w3.org/2000/svg" xmlns:xlink="http://www.w3.org/1999/xlink">
    <!-- Generator: Sketch 43.1 (39012) - http://www.bohemiancoding.com/sketch -->
    <title>ic_instagram</title>
    <desc>Created with Sketch.</desc>
    <defs></defs>
    <g id="Templates" stroke="none" stroke-width="1" fill="none" fill-rule="evenodd">
        <g id="ic_instagram" fill="#000000">
            <path d="M14,12 C14,11.4479139 13.8046895,10.9765645 13.4140625,10.5859375 C13.0234355,10.1953105 12.5520861,10 12,10 C11.4479139,10 10.9765645,10.1953105 10.5859375,10.5859375 C10.1953105,10.9765645 10,11.4479139 10,12 C10,12.5520861 10.1953105,13.0234355 10.5859375,13.4140625 C10.9765645,13.8046895 11.4479139,14 12,14 C12.5520861,14 13.0234355,13.8046895 13.4140625,13.4140625 C13.8046895,13.0234355 14,12.5520861 14,12 Z M15.078125,12 C15.078125,12.8541709 14.7786488,13.5807262 14.1796875,14.1796875 C13.5807262,14.7786488 12.8541709,15.078125 12,15.078125 C11.1458291,15.078125 10.4192738,14.7786488 9.8203125,14.1796875 C9.22135117,13.5807262 8.921875,12.8541709 8.921875,12 C8.921875,11.1458291 9.22135117,10.4192738 9.8203125,9.8203125 C10.4192738,9.22135117 11.1458291,8.921875 12,8.921875 C12.8541709,8.921875 13.5807262,9.22135117 14.1796875,9.8203125 C14.7786488,10.4192738 15.078125,11.1458291 15.078125,12 Z M15.921875,8.796875 C15.921875,8.99479266 15.8515632,9.1640618 15.7109375,9.3046875 C15.5703118,9.4453132 15.4010427,9.515625 15.203125,9.515625 C15.0052073,9.515625 14.8359382,9.4453132 14.6953125,9.3046875 C14.5546868,9.1640618 14.484375,8.99479266 14.484375,8.796875 C14.484375,8.59895734 14.5546868,8.4296882 14.6953125,8.2890625 C14.8359382,8.1484368 15.0052073,8.078125 15.203125,8.078125 C15.4010427,8.078125 15.5703118,8.1484368 15.7109375,8.2890625 C15.8515632,8.4296882 15.921875,8.59895734 15.921875,8.796875 Z M12,7.078125 C11.9635415,7.078125 11.7643247,7.07682293 11.4023438,7.07421875 C11.0403628,7.07161457 10.7656259,7.07161457 10.578125,7.07421875 C10.3906241,7.07682293 10.1393245,7.08463535 9.82421875,7.09765625 C9.50911301,7.11067715 9.24088652,7.13671855 9.01953125,7.17578125 C8.79817598,7.21484395 8.61197992,7.26302055 8.4609375,7.3203125 C8.20051953,7.42447969 7.97135516,7.57551984 7.7734375,7.7734375 C7.57551984,7.97135516 7.42447969,8.20051953 7.3203125,8.4609375 C7.26302055,8.61197992 7.21484395,8.79817598 7.17578125,9.01953125 C7.13671855,9.24088652 7.11067715,9.50911301 7.09765625,9.82421875 C7.08463535,10.1393245 7.07682293,10.3906241 7.07421875,10.578125 C7.07161457,10.7656259 7.07161457,11.0403628 7.07421875,11.4023438 C7.07682293,11.7643247 7.078125,11.9635415 7.078125,12 C7.078125,12.0364585 7.07682293,12.2356753 7.07421875,12.5976562 C7.07161457,12.9596372 7.07161457,13.2343741 7.07421875,13.421875 C7.07682293,13.6093759 7.08463535,13.8606755 7.09765625,14.1757812 C7.11067715,14.490887 7.13671855,14.7591135 7.17578125,14.9804688 C7.21484395,15.201824 7.26302055,15.3880201 7.3203125,15.5390625 C7.42447969,15.7994805 7.57551984,16.0286448 7.7734375,16.2265625 C7.97135516,16.4244802 8.20051953,16.5755203 8.4609375,16.6796875 C8.61197992,16.7369795 8.79817598,16.7851561 9.01953125,16.8242188 C9.24088652,16.8632814 9.50911301,16.8893229 9.82421875,16.9023438 C10.1393245,16.9153646 10.3906241,16.9231771 10.578125,16.9257812 C10.7656259,16.9283854 11.0403628,16.9283854 11.4023438,16.9257812 C11.7643247,16.9231771 11.9635415,16.921875 12,16.921875 C12.0364585,16.921875 12.2356753,16.9231771 12.5976562,16.9257812 C12.9596372,16.9283854 13.2343741,16.9283854 13.421875,16.9257812 C13.6093759,16.9231771 13.8606755,16.9153646 14.1757812,16.9023438 C14.490887,16.8893229 14.7591135,16.8632814 14.9804688,16.8242188 C15.201824,16.7851561 15.3880201,16.7369795 15.5390625,16.6796875 C15.7994805,16.5755203 16.0286448,16.4244802 16.2265625,16.2265625 C16.4244802,16.0286448 16.5755203,15.7994805 16.6796875,15.5390625 C16.7369795,15.3880201 16.7851561,15.201824 16.8242188,14.9804688 C16.8632814,14.7591135 16.8893229,14.490887 16.9023438,14.1757812 C16.9153646,13.8606755 16.9231771,13.6093759 16.9257812,13.421875 C16.9283854,13.2343741 16.9283854,12.9596372 16.9257812,12.5976562 C16.9231771,12.2356753 16.921875,12.0364585 16.921875,12 C16.921875,11.9635415 16.9231771,11.7643247 16.9257812,11.4023438 C16.9283854,11.0403628 16.9283854,10.7656259 16.9257812,10.578125 C16.9231771,10.3906241 16.9153646,10.1393245 16.9023438,9.82421875 C16.8893229,9.50911301 16.8632814,9.24088652 16.8242188,9.01953125 C16.7851561,8.79817598 16.7369795,8.61197992 16.6796875,8.4609375 C16.5755203,8.20051953 16.4244802,7.97135516 16.2265625,7.7734375 C16.0286448,7.57551984 15.7994805,7.42447969 15.5390625,7.3203125 C15.3880201,7.26302055 15.201824,7.21484395 14.9804688,7.17578125 C14.7591135,7.13671855 14.490887,7.11067715 14.1757812,7.09765625 C13.8606755,7.08463535 13.6093759,7.07682293 13.421875,7.07421875 C13.2343741,7.07161457 12.9596372,7.07161457 12.5976562,7.07421875 C12.2356753,7.07682293 12.0364585,7.078125 12,7.078125 Z M18,12 C18,13.1927143 17.9869793,14.0182269 17.9609375,14.4765625 C17.9088539,15.5599012 17.5859405,16.3984345 16.9921875,16.9921875 C16.3984345,17.5859405 15.5599012,17.9088539 14.4765625,17.9609375 C14.0182269,17.9869793 13.1927143,18 12,18 C10.8072857,18 9.98177313,17.9869793 9.5234375,17.9609375 C8.44009875,17.9088539 7.60156547,17.5859405 7.0078125,16.9921875 C6.41405953,16.3984345 6.09114609,15.5599012 6.0390625,14.4765625 C6.0130207,14.0182269 6,13.1927143 6,12 C6,10.8072857 6.0130207,9.98177313 6.0390625,9.5234375 C6.09114609,8.44009875 6.41405953,7.60156547 7.0078125,7.0078125 C7.60156547,6.41405953 8.44009875,6.09114609 9.5234375,6.0390625 C9.98177313,6.0130207 10.8072857,6 12,6 C13.1927143,6 14.0182269,6.0130207 14.4765625,6.0390625 C15.5599012,6.09114609 16.3984345,6.41405953 16.9921875,7.0078125 C17.5859405,7.60156547 17.9088539,8.44009875 17.9609375,9.5234375 C17.9869793,9.98177313 18,10.8072857 18,12 Z" id=""></path>
        </g>
    </g>
</svg>